<svg xmlns="http://www.w3.org/2000/svg" width="1440" height="820" style="cursor: move;"><g transform="translate(-31.934252152524778,-28.834251611122795) scale(1.0424657608411234)"><path class="link" marker-end="" d="M670,338, 490,412" style="stroke-width: 0.5; stroke-opacity: 1; stroke: rgb(80, 80, 80); fill: none;"></path><path class="link" marker-end="" d="M670,338, 530,412" style="stroke-width: 0.5; stroke-opacity: 1; stroke: rgb(80, 80, 80); fill: none;"></path><path class="link" marker-end="" d="M670,338, 570,412" style="stroke-width: 0.5; stroke-opacity: 1; stroke: rgb(80, 80, 80); fill: none;"></path><path class="link" marker-end="" d="M670,338, 610,412" style="stroke-width: 0.5; stroke-opacity: 1; stroke: rgb(80, 80, 80); fill: none;"></path><path class="link" marker-end="" d="M670,338, 650,412" style="stroke-width: 0.5; stroke-opacity: 1; stroke: rgb(80, 80, 80); fill: none;"></path><path class="link" marker-end="" d="M670,338, 690,412" style="stroke-width: 0.5; stroke-opacity: 1; stroke: rgb(80, 80, 80); fill: none;"></path><path class="link" marker-end="" d="M670,338, 730,412" style="stroke-width: 0.5; stroke-opacity: 1; stroke: rgb(80, 80, 80); fill: none;"></path><path class="link" marker-end="" d="M670,338, 770,412" style="stroke-width: 0.5; stroke-opacity: 1; stroke: rgb(80, 80, 80); fill: none;"></path><path class="link" marker-end="" d="M670,338, 810,412" style="stroke-width: 0.5; stroke-opacity: 1; stroke: rgb(80, 80, 80); fill: none;"></path><path class="link" marker-end="" d="M670,338, 850,412" style="stroke-width: 0.5; stroke-opacity: 1; stroke: rgb(80, 80, 80); fill: none;"></path><path class="link" marker-end="" d="M670,338, 890,412" style="stroke-width: 0.5; stroke-opacity: 1; stroke: rgb(80, 80, 80); fill: none;"></path><path class="link" marker-end="" d="M670,338, 930,412" style="stroke-width: 0.5; stroke-opacity: 1; stroke: rgb(80, 80, 80); fill: none;"></path><path class="link" marker-end="" d="M710,338, 490,412" style="stroke-width: 0.5; stroke-opacity: 1; stroke: rgb(80, 80, 80); fill: none;"></path><path class="link" marker-end="" d="M710,338, 530,412" style="stroke-width: 0.5; stroke-opacity: 1; stroke: rgb(80, 80, 80); fill: none;"></path><path class="link" marker-end="" d="M710,338, 570,412" style="stroke-width: 0.5; stroke-opacity: 1; stroke: rgb(80, 80, 80); fill: none;"></path><path class="link" marker-end="" d="M710,338, 610,412" style="stroke-width: 0.5; stroke-opacity: 1; stroke: rgb(80, 80, 80); fill: none;"></path><path class="link" marker-end="" d="M710,338, 650,412" style="stroke-width: 0.5; stroke-opacity: 1; stroke: rgb(80, 80, 80); fill: none;"></path><path class="link" marker-end="" d="M710,338, 690,412" style="stroke-width: 0.5; stroke-opacity: 1; stroke: rgb(80, 80, 80); fill: none;"></path><path class="link" marker-end="" d="M710,338, 730,412" style="stroke-width: 0.5; stroke-opacity: 1; stroke: rgb(80, 80, 80); fill: none;"></path><path class="link" marker-end="" d="M710,338, 770,412" style="stroke-width: 0.5; stroke-opacity: 1; stroke: rgb(80, 80, 80); fill: none;"></path><path class="link" marker-end="" d="M710,338, 810,412" style="stroke-width: 0.5; stroke-opacity: 1; stroke: rgb(80, 80, 80); fill: none;"></path><path class="link" marker-end="" d="M710,338, 850,412" style="stroke-width: 0.5; stroke-opacity: 1; stroke: rgb(80, 80, 80); fill: none;"></path><path class="link" marker-end="" d="M710,338, 890,412" style="stroke-width: 0.5; stroke-opacity: 1; stroke: rgb(80, 80, 80); fill: none;"></path><path class="link" marker-end="" d="M710,338, 930,412" style="stroke-width: 0.5; stroke-opacity: 1; stroke: rgb(80, 80, 80); fill: none;"></path><path class="link" marker-end="" d="M750,338, 490,412" style="stroke-width: 0.5; stroke-opacity: 1; stroke: rgb(80, 80, 80); fill: none;"></path><path class="link" marker-end="" d="M750,338, 530,412" style="stroke-width: 0.5; stroke-opacity: 1; stroke: rgb(80, 80, 80); fill: none;"></path><path class="link" marker-end="" d="M750,338, 570,412" style="stroke-width: 0.5; stroke-opacity: 1; stroke: rgb(80, 80, 80); fill: none;"></path><path class="link" marker-end="" d="M750,338, 610,412" style="stroke-width: 0.5; stroke-opacity: 1; stroke: rgb(80, 80, 80); fill: none;"></path><path class="link" marker-end="" d="M750,338, 650,412" style="stroke-width: 0.5; stroke-opacity: 1; stroke: rgb(80, 80, 80); fill: none;"></path><path class="link" marker-end="" d="M750,338, 690,412" style="stroke-width: 0.5; stroke-opacity: 1; stroke: rgb(80, 80, 80); fill: none;"></path><path class="link" marker-end="" d="M750,338, 730,412" style="stroke-width: 0.5; stroke-opacity: 1; stroke: rgb(80, 80, 80); fill: none;"></path><path class="link" marker-end="" d="M750,338, 770,412" style="stroke-width: 0.5; stroke-opacity: 1; stroke: rgb(80, 80, 80); fill: none;"></path><path class="link" marker-end="" d="M750,338, 810,412" style="stroke-width: 0.5; stroke-opacity: 1; stroke: rgb(80, 80, 80); fill: none;"></path><path class="link" marker-end="" d="M750,338, 850,412" style="stroke-width: 0.5; stroke-opacity: 1; stroke: rgb(80, 80, 80); fill: none;"></path><path class="link" marker-end="" d="M750,338, 890,412" style="stroke-width: 0.5; stroke-opacity: 1; stroke: rgb(80, 80, 80); fill: none;"></path><path class="link" marker-end="" d="M750,338, 930,412" style="stroke-width: 0.5; stroke-opacity: 1; stroke: rgb(80, 80, 80); fill: none;"></path><path class="link" marker-end="" d="M490,412, 490,486" style="stroke-width: 0.5; stroke-opacity: 1; stroke: rgb(80, 80, 80); fill: none;"></path><path class="link" marker-end="" d="M490,412, 530,486" style="stroke-width: 0.5; stroke-opacity: 1; stroke: rgb(80, 80, 80); fill: none;"></path><path class="link" marker-end="" d="M490,412, 570,486" style="stroke-width: 0.5; stroke-opacity: 1; stroke: rgb(80, 80, 80); fill: none;"></path><path class="link" marker-end="" d="M490,412, 610,486" style="stroke-width: 0.5; stroke-opacity: 1; stroke: rgb(80, 80, 80); fill: none;"></path><path class="link" marker-end="" d="M490,412, 650,486" style="stroke-width: 0.5; stroke-opacity: 1; stroke: rgb(80, 80, 80); fill: none;"></path><path class="link" marker-end="" d="M490,412, 690,486" style="stroke-width: 0.5; stroke-opacity: 1; stroke: rgb(80, 80, 80); fill: none;"></path><path class="link" marker-end="" d="M490,412, 730,486" style="stroke-width: 0.5; stroke-opacity: 1; stroke: rgb(80, 80, 80); fill: none;"></path><path class="link" marker-end="" d="M490,412, 770,486" style="stroke-width: 0.5; stroke-opacity: 1; stroke: rgb(80, 80, 80); fill: none;"></path><path class="link" marker-end="" d="M490,412, 810,486" style="stroke-width: 0.5; stroke-opacity: 1; stroke: rgb(80, 80, 80); fill: none;"></path><path class="link" marker-end="" d="M490,412, 850,486" style="stroke-width: 0.5; stroke-opacity: 1; stroke: rgb(80, 80, 80); fill: none;"></path><path class="link" marker-end="" d="M530,412, 490,486" style="stroke-width: 0.5; stroke-opacity: 1; stroke: rgb(80, 80, 80); fill: none;"></path><path class="link" marker-end="" d="M530,412, 530,486" style="stroke-width: 0.5; stroke-opacity: 1; stroke: rgb(80, 80, 80); fill: none;"></path><path class="link" marker-end="" d="M530,412, 570,486" style="stroke-width: 0.5; stroke-opacity: 1; stroke: rgb(80, 80, 80); fill: none;"></path><path class="link" marker-end="" d="M530,412, 610,486" style="stroke-width: 0.5; stroke-opacity: 1; stroke: rgb(80, 80, 80); fill: none;"></path><path class="link" marker-end="" d="M530,412, 650,486" style="stroke-width: 0.5; stroke-opacity: 1; stroke: rgb(80, 80, 80); fill: none;"></path><path class="link" marker-end="" d="M530,412, 690,486" style="stroke-width: 0.5; stroke-opacity: 1; stroke: rgb(80, 80, 80); fill: none;"></path><path class="link" marker-end="" d="M530,412, 730,486" style="stroke-width: 0.5; stroke-opacity: 1; stroke: rgb(80, 80, 80); fill: none;"></path><path class="link" marker-end="" d="M530,412, 770,486" style="stroke-width: 0.5; stroke-opacity: 1; stroke: rgb(80, 80, 80); fill: none;"></path><path class="link" marker-end="" d="M530,412, 810,486" style="stroke-width: 0.5; stroke-opacity: 1; stroke: rgb(80, 80, 80); fill: none;"></path><path class="link" marker-end="" d="M530,412, 850,486" style="stroke-width: 0.5; stroke-opacity: 1; stroke: rgb(80, 80, 80); fill: none;"></path><path class="link" marker-end="" d="M570,412, 490,486" style="stroke-width: 0.5; stroke-opacity: 1; stroke: rgb(80, 80, 80); fill: none;"></path><path class="link" marker-end="" d="M570,412, 530,486" style="stroke-width: 0.5; stroke-opacity: 1; stroke: rgb(80, 80, 80); fill: none;"></path><path class="link" marker-end="" d="M570,412, 570,486" style="stroke-width: 0.5; stroke-opacity: 1; stroke: rgb(80, 80, 80); fill: none;"></path><path class="link" marker-end="" d="M570,412, 610,486" style="stroke-width: 0.5; stroke-opacity: 1; stroke: rgb(80, 80, 80); fill: none;"></path><path class="link" marker-end="" d="M570,412, 650,486" style="stroke-width: 0.5; stroke-opacity: 1; stroke: rgb(80, 80, 80); fill: none;"></path><path class="link" marker-end="" d="M570,412, 690,486" style="stroke-width: 0.5; stroke-opacity: 1; stroke: rgb(80, 80, 80); fill: none;"></path><path class="link" marker-end="" d="M570,412, 730,486" style="stroke-width: 0.5; stroke-opacity: 1; stroke: rgb(80, 80, 80); fill: none;"></path><path class="link" marker-end="" d="M570,412, 770,486" style="stroke-width: 0.5; stroke-opacity: 1; stroke: rgb(80, 80, 80); fill: none;"></path><path class="link" marker-end="" d="M570,412, 810,486" style="stroke-width: 0.5; stroke-opacity: 1; stroke: rgb(80, 80, 80); fill: none;"></path><path class="link" marker-end="" d="M570,412, 850,486" style="stroke-width: 0.5; stroke-opacity: 1; stroke: rgb(80, 80, 80); fill: none;"></path><path class="link" marker-end="" d="M610,412, 490,486" style="stroke-width: 0.5; stroke-opacity: 1; stroke: rgb(80, 80, 80); fill: none;"></path><path class="link" marker-end="" d="M610,412, 530,486" style="stroke-width: 0.5; stroke-opacity: 1; stroke: rgb(80, 80, 80); fill: none;"></path><path class="link" marker-end="" d="M610,412, 570,486" style="stroke-width: 0.5; stroke-opacity: 1; stroke: rgb(80, 80, 80); fill: none;"></path><path class="link" marker-end="" d="M610,412, 610,486" style="stroke-width: 0.5; stroke-opacity: 1; stroke: rgb(80, 80, 80); fill: none;"></path><path class="link" marker-end="" d="M610,412, 650,486" style="stroke-width: 0.5; stroke-opacity: 1; stroke: rgb(80, 80, 80); fill: none;"></path><path class="link" marker-end="" d="M610,412, 690,486" style="stroke-width: 0.5; stroke-opacity: 1; stroke: rgb(80, 80, 80); fill: none;"></path><path class="link" marker-end="" d="M610,412, 730,486" style="stroke-width: 0.5; stroke-opacity: 1; stroke: rgb(80, 80, 80); fill: none;"></path><path class="link" marker-end="" d="M610,412, 770,486" style="stroke-width: 0.5; stroke-opacity: 1; stroke: rgb(80, 80, 80); fill: none;"></path><path class="link" marker-end="" d="M610,412, 810,486" style="stroke-width: 0.5; stroke-opacity: 1; stroke: rgb(80, 80, 80); fill: none;"></path><path class="link" marker-end="" d="M610,412, 850,486" style="stroke-width: 0.5; stroke-opacity: 1; stroke: rgb(80, 80, 80); fill: none;"></path><path class="link" marker-end="" d="M650,412, 490,486" style="stroke-width: 0.5; stroke-opacity: 1; stroke: rgb(80, 80, 80); fill: none;"></path><path class="link" marker-end="" d="M650,412, 530,486" style="stroke-width: 0.5; stroke-opacity: 1; stroke: rgb(80, 80, 80); fill: none;"></path><path class="link" marker-end="" d="M650,412, 570,486" style="stroke-width: 0.5; stroke-opacity: 1; stroke: rgb(80, 80, 80); fill: none;"></path><path class="link" marker-end="" d="M650,412, 610,486" style="stroke-width: 0.5; stroke-opacity: 1; stroke: rgb(80, 80, 80); fill: none;"></path><path class="link" marker-end="" d="M650,412, 650,486" style="stroke-width: 0.5; stroke-opacity: 1; stroke: rgb(80, 80, 80); fill: none;"></path><path class="link" marker-end="" d="M650,412, 690,486" style="stroke-width: 0.5; stroke-opacity: 1; stroke: rgb(80, 80, 80); fill: none;"></path><path class="link" marker-end="" d="M650,412, 730,486" style="stroke-width: 0.5; stroke-opacity: 1; stroke: rgb(80, 80, 80); fill: none;"></path><path class="link" marker-end="" d="M650,412, 770,486" style="stroke-width: 0.5; stroke-opacity: 1; stroke: rgb(80, 80, 80); fill: none;"></path><path class="link" marker-end="" d="M650,412, 810,486" style="stroke-width: 0.5; stroke-opacity: 1; stroke: rgb(80, 80, 80); fill: none;"></path><path class="link" marker-end="" d="M650,412, 850,486" style="stroke-width: 0.5; stroke-opacity: 1; stroke: rgb(80, 80, 80); fill: none;"></path><path class="link" marker-end="" d="M690,412, 490,486" style="stroke-width: 0.5; stroke-opacity: 1; stroke: rgb(80, 80, 80); fill: none;"></path><path class="link" marker-end="" d="M690,412, 530,486" style="stroke-width: 0.5; stroke-opacity: 1; stroke: rgb(80, 80, 80); fill: none;"></path><path class="link" marker-end="" d="M690,412, 570,486" style="stroke-width: 0.5; stroke-opacity: 1; stroke: rgb(80, 80, 80); fill: none;"></path><path class="link" marker-end="" d="M690,412, 610,486" style="stroke-width: 0.5; stroke-opacity: 1; stroke: rgb(80, 80, 80); fill: none;"></path><path class="link" marker-end="" d="M690,412, 650,486" style="stroke-width: 0.5; stroke-opacity: 1; stroke: rgb(80, 80, 80); fill: none;"></path><path class="link" marker-end="" d="M690,412, 690,486" style="stroke-width: 0.5; stroke-opacity: 1; stroke: rgb(80, 80, 80); fill: none;"></path><path class="link" marker-end="" d="M690,412, 730,486" style="stroke-width: 0.5; stroke-opacity: 1; stroke: rgb(80, 80, 80); fill: none;"></path><path class="link" marker-end="" d="M690,412, 770,486" style="stroke-width: 0.5; stroke-opacity: 1; stroke: rgb(80, 80, 80); fill: none;"></path><path class="link" marker-end="" d="M690,412, 810,486" style="stroke-width: 0.5; stroke-opacity: 1; stroke: rgb(80, 80, 80); fill: none;"></path><path class="link" marker-end="" d="M690,412, 850,486" style="stroke-width: 0.5; stroke-opacity: 1; stroke: rgb(80, 80, 80); fill: none;"></path><path class="link" marker-end="" d="M730,412, 490,486" style="stroke-width: 0.5; stroke-opacity: 1; stroke: rgb(80, 80, 80); fill: none;"></path><path class="link" marker-end="" d="M730,412, 530,486" style="stroke-width: 0.5; stroke-opacity: 1; stroke: rgb(80, 80, 80); fill: none;"></path><path class="link" marker-end="" d="M730,412, 570,486" style="stroke-width: 0.5; stroke-opacity: 1; stroke: rgb(80, 80, 80); fill: none;"></path><path class="link" marker-end="" d="M730,412, 610,486" style="stroke-width: 0.5; stroke-opacity: 1; stroke: rgb(80, 80, 80); fill: none;"></path><path class="link" marker-end="" d="M730,412, 650,486" style="stroke-width: 0.5; stroke-opacity: 1; stroke: rgb(80, 80, 80); fill: none;"></path><path class="link" marker-end="" d="M730,412, 690,486" style="stroke-width: 0.5; stroke-opacity: 1; stroke: rgb(80, 80, 80); fill: none;"></path><path class="link" marker-end="" d="M730,412, 730,486" style="stroke-width: 0.5; stroke-opacity: 1; stroke: rgb(80, 80, 80); fill: none;"></path><path class="link" marker-end="" d="M730,412, 770,486" style="stroke-width: 0.5; stroke-opacity: 1; stroke: rgb(80, 80, 80); fill: none;"></path><path class="link" marker-end="" d="M730,412, 810,486" style="stroke-width: 0.5; stroke-opacity: 1; stroke: rgb(80, 80, 80); fill: none;"></path><path class="link" marker-end="" d="M730,412, 850,486" style="stroke-width: 0.5; stroke-opacity: 1; stroke: rgb(80, 80, 80); fill: none;"></path><path class="link" marker-end="" d="M770,412, 490,486" style="stroke-width: 0.5; stroke-opacity: 1; stroke: rgb(80, 80, 80); fill: none;"></path><path class="link" marker-end="" d="M770,412, 530,486" style="stroke-width: 0.5; stroke-opacity: 1; stroke: rgb(80, 80, 80); fill: none;"></path><path class="link" marker-end="" d="M770,412, 570,486" style="stroke-width: 0.5; stroke-opacity: 1; stroke: rgb(80, 80, 80); fill: none;"></path><path class="link" marker-end="" d="M770,412, 610,486" style="stroke-width: 0.5; stroke-opacity: 1; stroke: rgb(80, 80, 80); fill: none;"></path><path class="link" marker-end="" d="M770,412, 650,486" style="stroke-width: 0.5; stroke-opacity: 1; stroke: rgb(80, 80, 80); fill: none;"></path><path class="link" marker-end="" d="M770,412, 690,486" style="stroke-width: 0.5; stroke-opacity: 1; stroke: rgb(80, 80, 80); fill: none;"></path><path class="link" marker-end="" d="M770,412, 730,486" style="stroke-width: 0.5; stroke-opacity: 1; stroke: rgb(80, 80, 80); fill: none;"></path><path class="link" marker-end="" d="M770,412, 770,486" style="stroke-width: 0.5; stroke-opacity: 1; stroke: rgb(80, 80, 80); fill: none;"></path><path class="link" marker-end="" d="M770,412, 810,486" style="stroke-width: 0.5; stroke-opacity: 1; stroke: rgb(80, 80, 80); fill: none;"></path><path class="link" marker-end="" d="M770,412, 850,486" style="stroke-width: 0.5; stroke-opacity: 1; stroke: rgb(80, 80, 80); fill: none;"></path><path class="link" marker-end="" d="M810,412, 490,486" style="stroke-width: 0.5; stroke-opacity: 1; stroke: rgb(80, 80, 80); fill: none;"></path><path class="link" marker-end="" d="M810,412, 530,486" style="stroke-width: 0.5; stroke-opacity: 1; stroke: rgb(80, 80, 80); fill: none;"></path><path class="link" marker-end="" d="M810,412, 570,486" style="stroke-width: 0.5; stroke-opacity: 1; stroke: rgb(80, 80, 80); fill: none;"></path><path class="link" marker-end="" d="M810,412, 610,486" style="stroke-width: 0.5; stroke-opacity: 1; stroke: rgb(80, 80, 80); fill: none;"></path><path class="link" marker-end="" d="M810,412, 650,486" style="stroke-width: 0.5; stroke-opacity: 1; stroke: rgb(80, 80, 80); fill: none;"></path><path class="link" marker-end="" d="M810,412, 690,486" style="stroke-width: 0.5; stroke-opacity: 1; stroke: rgb(80, 80, 80); fill: none;"></path><path class="link" marker-end="" d="M810,412, 730,486" style="stroke-width: 0.5; stroke-opacity: 1; stroke: rgb(80, 80, 80); fill: none;"></path><path class="link" marker-end="" d="M810,412, 770,486" style="stroke-width: 0.5; stroke-opacity: 1; stroke: rgb(80, 80, 80); fill: none;"></path><path class="link" marker-end="" d="M810,412, 810,486" style="stroke-width: 0.5; stroke-opacity: 1; stroke: rgb(80, 80, 80); fill: none;"></path><path class="link" marker-end="" d="M810,412, 850,486" style="stroke-width: 0.5; stroke-opacity: 1; stroke: rgb(80, 80, 80); fill: none;"></path><path class="link" marker-end="" d="M850,412, 490,486" style="stroke-width: 0.5; stroke-opacity: 1; stroke: rgb(80, 80, 80); fill: none;"></path><path class="link" marker-end="" d="M850,412, 530,486" style="stroke-width: 0.5; stroke-opacity: 1; stroke: rgb(80, 80, 80); fill: none;"></path><path class="link" marker-end="" d="M850,412, 570,486" style="stroke-width: 0.5; stroke-opacity: 1; stroke: rgb(80, 80, 80); fill: none;"></path><path class="link" marker-end="" d="M850,412, 610,486" style="stroke-width: 0.5; stroke-opacity: 1; stroke: rgb(80, 80, 80); fill: none;"></path><path class="link" marker-end="" d="M850,412, 650,486" style="stroke-width: 0.5; stroke-opacity: 1; stroke: rgb(80, 80, 80); fill: none;"></path><path class="link" marker-end="" d="M850,412, 690,486" style="stroke-width: 0.5; stroke-opacity: 1; stroke: rgb(80, 80, 80); fill: none;"></path><path class="link" marker-end="" d="M850,412, 730,486" style="stroke-width: 0.5; stroke-opacity: 1; stroke: rgb(80, 80, 80); fill: none;"></path><path class="link" marker-end="" d="M850,412, 770,486" style="stroke-width: 0.5; stroke-opacity: 1; stroke: rgb(80, 80, 80); fill: none;"></path><path class="link" marker-end="" d="M850,412, 810,486" style="stroke-width: 0.5; stroke-opacity: 1; stroke: rgb(80, 80, 80); fill: none;"></path><path class="link" marker-end="" d="M850,412, 850,486" style="stroke-width: 0.5; stroke-opacity: 1; stroke: rgb(80, 80, 80); fill: none;"></path><path class="link" marker-end="" d="M890,412, 490,486" style="stroke-width: 0.5; stroke-opacity: 1; stroke: rgb(80, 80, 80); fill: none;"></path><path class="link" marker-end="" d="M890,412, 530,486" style="stroke-width: 0.5; stroke-opacity: 1; stroke: rgb(80, 80, 80); fill: none;"></path><path class="link" marker-end="" d="M890,412, 570,486" style="stroke-width: 0.5; stroke-opacity: 1; stroke: rgb(80, 80, 80); fill: none;"></path><path class="link" marker-end="" d="M890,412, 610,486" style="stroke-width: 0.5; stroke-opacity: 1; stroke: rgb(80, 80, 80); fill: none;"></path><path class="link" marker-end="" d="M890,412, 650,486" style="stroke-width: 0.5; stroke-opacity: 1; stroke: rgb(80, 80, 80); fill: none;"></path><path class="link" marker-end="" d="M890,412, 690,486" style="stroke-width: 0.5; stroke-opacity: 1; stroke: rgb(80, 80, 80); fill: none;"></path><path class="link" marker-end="" d="M890,412, 730,486" style="stroke-width: 0.5; stroke-opacity: 1; stroke: rgb(80, 80, 80); fill: none;"></path><path class="link" marker-end="" d="M890,412, 770,486" style="stroke-width: 0.5; stroke-opacity: 1; stroke: rgb(80, 80, 80); fill: none;"></path><path class="link" marker-end="" d="M890,412, 810,486" style="stroke-width: 0.5; stroke-opacity: 1; stroke: rgb(80, 80, 80); fill: none;"></path><path class="link" marker-end="" d="M890,412, 850,486" style="stroke-width: 0.5; stroke-opacity: 1; stroke: rgb(80, 80, 80); fill: none;"></path><path class="link" marker-end="" d="M930,412, 490,486" style="stroke-width: 0.5; stroke-opacity: 1; stroke: rgb(80, 80, 80); fill: none;"></path><path class="link" marker-end="" d="M930,412, 530,486" style="stroke-width: 0.5; stroke-opacity: 1; stroke: rgb(80, 80, 80); fill: none;"></path><path class="link" marker-end="" d="M930,412, 570,486" style="stroke-width: 0.5; stroke-opacity: 1; stroke: rgb(80, 80, 80); fill: none;"></path><path class="link" marker-end="" d="M930,412, 610,486" style="stroke-width: 0.5; stroke-opacity: 1; stroke: rgb(80, 80, 80); fill: none;"></path><path class="link" marker-end="" d="M930,412, 650,486" style="stroke-width: 0.5; stroke-opacity: 1; stroke: rgb(80, 80, 80); fill: none;"></path><path class="link" marker-end="" d="M930,412, 690,486" style="stroke-width: 0.5; stroke-opacity: 1; stroke: rgb(80, 80, 80); fill: none;"></path><path class="link" marker-end="" d="M930,412, 730,486" style="stroke-width: 0.5; stroke-opacity: 1; stroke: rgb(80, 80, 80); fill: none;"></path><path class="link" marker-end="" d="M930,412, 770,486" style="stroke-width: 0.5; stroke-opacity: 1; stroke: rgb(80, 80, 80); fill: none;"></path><path class="link" marker-end="" d="M930,412, 810,486" style="stroke-width: 0.5; stroke-opacity: 1; stroke: rgb(80, 80, 80); fill: none;"></path><path class="link" marker-end="" d="M930,412, 850,486" style="stroke-width: 0.5; stroke-opacity: 1; stroke: rgb(80, 80, 80); fill: none;"></path><path class="link" marker-end="" d="M490,486, 630,560" style="stroke-width: 0.5; stroke-opacity: 1; stroke: rgb(80, 80, 80); fill: none;"></path><path class="link" marker-end="" d="M530,486, 630,560" style="stroke-width: 0.5; stroke-opacity: 1; stroke: rgb(80, 80, 80); fill: none;"></path><path class="link" marker-end="" d="M570,486, 630,560" style="stroke-width: 0.5; stroke-opacity: 1; stroke: rgb(80, 80, 80); fill: none;"></path><path class="link" marker-end="" d="M610,486, 630,560" style="stroke-width: 0.5; stroke-opacity: 1; stroke: rgb(80, 80, 80); fill: none;"></path><path class="link" marker-end="" d="M650,486, 630,560" style="stroke-width: 0.5; stroke-opacity: 1; stroke: rgb(80, 80, 80); fill: none;"></path><path class="link" marker-end="" d="M690,486, 630,560" style="stroke-width: 0.5; stroke-opacity: 1; stroke: rgb(80, 80, 80); fill: none;"></path><path class="link" marker-end="" d="M730,486, 630,560" style="stroke-width: 0.5; stroke-opacity: 1; stroke: rgb(80, 80, 80); fill: none;"></path><path class="link" marker-end="" d="M770,486, 630,560" style="stroke-width: 0.5; stroke-opacity: 1; stroke: rgb(80, 80, 80); fill: none;"></path><path class="link" marker-end="" d="M810,486, 630,560" style="stroke-width: 0.5; stroke-opacity: 1; stroke: rgb(80, 80, 80); fill: none;"></path><path class="link" marker-end="" d="M850,486, 630,560" style="stroke-width: 0.5; stroke-opacity: 1; stroke: rgb(80, 80, 80); fill: none;"></path><path class="link" marker-end="" d="M490,412, 890,486" style="stroke-width: 0.5; stroke-opacity: 1; stroke: rgb(80, 80, 80); fill: none;"></path><path class="link" marker-end="" d="M530,412, 890,486" style="stroke-width: 0.5; stroke-opacity: 1; stroke: rgb(80, 80, 80); fill: none;"></path><path class="link" marker-end="" d="M570,412, 890,486" style="stroke-width: 0.5; stroke-opacity: 1; stroke: rgb(80, 80, 80); fill: none;"></path><path class="link" marker-end="" d="M610,412, 890,486" style="stroke-width: 0.5; stroke-opacity: 1; stroke: rgb(80, 80, 80); fill: none;"></path><path class="link" marker-end="" d="M650,412, 890,486" style="stroke-width: 0.5; stroke-opacity: 1; stroke: rgb(80, 80, 80); fill: none;"></path><path class="link" marker-end="" d="M690,412, 890,486" style="stroke-width: 0.5; stroke-opacity: 1; stroke: rgb(80, 80, 80); fill: none;"></path><path class="link" marker-end="" d="M730,412, 890,486" style="stroke-width: 0.5; stroke-opacity: 1; stroke: rgb(80, 80, 80); fill: none;"></path><path class="link" marker-end="" d="M770,412, 890,486" style="stroke-width: 0.5; stroke-opacity: 1; stroke: rgb(80, 80, 80); fill: none;"></path><path class="link" marker-end="" d="M810,412, 890,486" style="stroke-width: 0.5; stroke-opacity: 1; stroke: rgb(80, 80, 80); fill: none;"></path><path class="link" marker-end="" d="M850,412, 890,486" style="stroke-width: 0.5; stroke-opacity: 1; stroke: rgb(80, 80, 80); fill: none;"></path><path class="link" marker-end="" d="M890,412, 890,486" style="stroke-width: 0.5; stroke-opacity: 1; stroke: rgb(80, 80, 80); fill: none;"></path><path class="link" marker-end="" d="M930,412, 890,486" style="stroke-width: 0.5; stroke-opacity: 1; stroke: rgb(80, 80, 80); fill: none;"></path><path class="link" marker-end="" d="M890,486, 630,560" style="stroke-width: 0.5; stroke-opacity: 1; stroke: rgb(80, 80, 80); fill: none;"></path><path class="link" marker-end="" d="M490,412, 930,486" style="stroke-width: 0.5; stroke-opacity: 1; stroke: rgb(80, 80, 80); fill: none;"></path><path class="link" marker-end="" d="M530,412, 930,486" style="stroke-width: 0.5; stroke-opacity: 1; stroke: rgb(80, 80, 80); fill: none;"></path><path class="link" marker-end="" d="M570,412, 930,486" style="stroke-width: 0.5; stroke-opacity: 1; stroke: rgb(80, 80, 80); fill: none;"></path><path class="link" marker-end="" d="M610,412, 930,486" style="stroke-width: 0.5; stroke-opacity: 1; stroke: rgb(80, 80, 80); fill: none;"></path><path class="link" marker-end="" d="M650,412, 930,486" style="stroke-width: 0.5; stroke-opacity: 1; stroke: rgb(80, 80, 80); fill: none;"></path><path class="link" marker-end="" d="M690,412, 930,486" style="stroke-width: 0.5; stroke-opacity: 1; stroke: rgb(80, 80, 80); fill: none;"></path><path class="link" marker-end="" d="M730,412, 930,486" style="stroke-width: 0.5; stroke-opacity: 1; stroke: rgb(80, 80, 80); fill: none;"></path><path class="link" marker-end="" d="M770,412, 930,486" style="stroke-width: 0.5; stroke-opacity: 1; stroke: rgb(80, 80, 80); fill: none;"></path><path class="link" marker-end="" d="M810,412, 930,486" style="stroke-width: 0.5; stroke-opacity: 1; stroke: rgb(80, 80, 80); fill: none;"></path><path class="link" marker-end="" d="M850,412, 930,486" style="stroke-width: 0.5; stroke-opacity: 1; stroke: rgb(80, 80, 80); fill: none;"></path><path class="link" marker-end="" d="M890,412, 930,486" style="stroke-width: 0.5; stroke-opacity: 1; stroke: rgb(80, 80, 80); fill: none;"></path><path class="link" marker-end="" d="M930,412, 930,486" style="stroke-width: 0.5; stroke-opacity: 1; stroke: rgb(80, 80, 80); fill: none;"></path><path class="link" marker-end="" d="M930,486, 630,560" style="stroke-width: 0.5; stroke-opacity: 1; stroke: rgb(80, 80, 80); fill: none;"></path><path class="link" marker-end="" d="M490,486, 670,560" style="stroke-width: 0.5; stroke-opacity: 1; stroke: rgb(80, 80, 80); fill: none;"></path><path class="link" marker-end="" d="M530,486, 670,560" style="stroke-width: 0.5; stroke-opacity: 1; stroke: rgb(80, 80, 80); fill: none;"></path><path class="link" marker-end="" d="M570,486, 670,560" style="stroke-width: 0.5; stroke-opacity: 1; stroke: rgb(80, 80, 80); fill: none;"></path><path class="link" marker-end="" d="M610,486, 670,560" style="stroke-width: 0.5; stroke-opacity: 1; stroke: rgb(80, 80, 80); fill: none;"></path><path class="link" marker-end="" d="M650,486, 670,560" style="stroke-width: 0.5; stroke-opacity: 1; stroke: rgb(80, 80, 80); fill: none;"></path><path class="link" marker-end="" d="M690,486, 670,560" style="stroke-width: 0.5; stroke-opacity: 1; stroke: rgb(80, 80, 80); fill: none;"></path><path class="link" marker-end="" d="M730,486, 670,560" style="stroke-width: 0.5; stroke-opacity: 1; stroke: rgb(80, 80, 80); fill: none;"></path><path class="link" marker-end="" d="M770,486, 670,560" style="stroke-width: 0.5; stroke-opacity: 1; stroke: rgb(80, 80, 80); fill: none;"></path><path class="link" marker-end="" d="M810,486, 670,560" style="stroke-width: 0.5; stroke-opacity: 1; stroke: rgb(80, 80, 80); fill: none;"></path><path class="link" marker-end="" d="M850,486, 670,560" style="stroke-width: 0.5; stroke-opacity: 1; stroke: rgb(80, 80, 80); fill: none;"></path><path class="link" marker-end="" d="M890,486, 670,560" style="stroke-width: 0.5; stroke-opacity: 1; stroke: rgb(80, 80, 80); fill: none;"></path><path class="link" marker-end="" d="M930,486, 670,560" style="stroke-width: 0.5; stroke-opacity: 1; stroke: rgb(80, 80, 80); fill: none;"></path><path class="link" marker-end="" d="M490,486, 710,560" style="stroke-width: 0.5; stroke-opacity: 1; stroke: rgb(80, 80, 80); fill: none;"></path><path class="link" marker-end="" d="M530,486, 710,560" style="stroke-width: 0.5; stroke-opacity: 1; stroke: rgb(80, 80, 80); fill: none;"></path><path class="link" marker-end="" d="M570,486, 710,560" style="stroke-width: 0.5; stroke-opacity: 1; stroke: rgb(80, 80, 80); fill: none;"></path><path class="link" marker-end="" d="M610,486, 710,560" style="stroke-width: 0.5; stroke-opacity: 1; stroke: rgb(80, 80, 80); fill: none;"></path><path class="link" marker-end="" d="M650,486, 710,560" style="stroke-width: 0.5; stroke-opacity: 1; stroke: rgb(80, 80, 80); fill: none;"></path><path class="link" marker-end="" d="M690,486, 710,560" style="stroke-width: 0.5; stroke-opacity: 1; stroke: rgb(80, 80, 80); fill: none;"></path><path class="link" marker-end="" d="M730,486, 710,560" style="stroke-width: 0.5; stroke-opacity: 1; stroke: rgb(80, 80, 80); fill: none;"></path><path class="link" marker-end="" d="M770,486, 710,560" style="stroke-width: 0.5; stroke-opacity: 1; stroke: rgb(80, 80, 80); fill: none;"></path><path class="link" marker-end="" d="M810,486, 710,560" style="stroke-width: 0.5; stroke-opacity: 1; stroke: rgb(80, 80, 80); fill: none;"></path><path class="link" marker-end="" d="M850,486, 710,560" style="stroke-width: 0.5; stroke-opacity: 1; stroke: rgb(80, 80, 80); fill: none;"></path><path class="link" marker-end="" d="M890,486, 710,560" style="stroke-width: 0.5; stroke-opacity: 1; stroke: rgb(80, 80, 80); fill: none;"></path><path class="link" marker-end="" d="M930,486, 710,560" style="stroke-width: 0.5; stroke-opacity: 1; stroke: rgb(80, 80, 80); fill: none;"></path><path class="link" marker-end="" d="M490,486, 750,560" style="stroke-width: 0.5; stroke-opacity: 1; stroke: rgb(80, 80, 80); fill: none;"></path><path class="link" marker-end="" d="M530,486, 750,560" style="stroke-width: 0.5; stroke-opacity: 1; stroke: rgb(80, 80, 80); fill: none;"></path><path class="link" marker-end="" d="M570,486, 750,560" style="stroke-width: 0.5; stroke-opacity: 1; stroke: rgb(80, 80, 80); fill: none;"></path><path class="link" marker-end="" d="M610,486, 750,560" style="stroke-width: 0.5; stroke-opacity: 1; stroke: rgb(80, 80, 80); fill: none;"></path><path class="link" marker-end="" d="M650,486, 750,560" style="stroke-width: 0.5; stroke-opacity: 1; stroke: rgb(80, 80, 80); fill: none;"></path><path class="link" marker-end="" d="M690,486, 750,560" style="stroke-width: 0.5; stroke-opacity: 1; stroke: rgb(80, 80, 80); fill: none;"></path><path class="link" marker-end="" d="M730,486, 750,560" style="stroke-width: 0.5; stroke-opacity: 1; stroke: rgb(80, 80, 80); fill: none;"></path><path class="link" marker-end="" d="M770,486, 750,560" style="stroke-width: 0.5; stroke-opacity: 1; stroke: rgb(80, 80, 80); fill: none;"></path><path class="link" marker-end="" d="M810,486, 750,560" style="stroke-width: 0.5; stroke-opacity: 1; stroke: rgb(80, 80, 80); fill: none;"></path><path class="link" marker-end="" d="M850,486, 750,560" style="stroke-width: 0.5; stroke-opacity: 1; stroke: rgb(80, 80, 80); fill: none;"></path><path class="link" marker-end="" d="M890,486, 750,560" style="stroke-width: 0.5; stroke-opacity: 1; stroke: rgb(80, 80, 80); fill: none;"></path><path class="link" marker-end="" d="M930,486, 750,560" style="stroke-width: 0.5; stroke-opacity: 1; stroke: rgb(80, 80, 80); fill: none;"></path><path class="link" marker-end="" d="M490,486, 790,560" style="stroke-width: 0.5; stroke-opacity: 1; stroke: rgb(80, 80, 80); fill: none;"></path><path class="link" marker-end="" d="M530,486, 790,560" style="stroke-width: 0.5; stroke-opacity: 1; stroke: rgb(80, 80, 80); fill: none;"></path><path class="link" marker-end="" d="M570,486, 790,560" style="stroke-width: 0.5; stroke-opacity: 1; stroke: rgb(80, 80, 80); fill: none;"></path><path class="link" marker-end="" d="M610,486, 790,560" style="stroke-width: 0.5; stroke-opacity: 1; stroke: rgb(80, 80, 80); fill: none;"></path><path class="link" marker-end="" d="M650,486, 790,560" style="stroke-width: 0.5; stroke-opacity: 1; stroke: rgb(80, 80, 80); fill: none;"></path><path class="link" marker-end="" d="M690,486, 790,560" style="stroke-width: 0.5; stroke-opacity: 1; stroke: rgb(80, 80, 80); fill: none;"></path><path class="link" marker-end="" d="M730,486, 790,560" style="stroke-width: 0.5; stroke-opacity: 1; stroke: rgb(80, 80, 80); fill: none;"></path><path class="link" marker-end="" d="M770,486, 790,560" style="stroke-width: 0.5; stroke-opacity: 1; stroke: rgb(80, 80, 80); fill: none;"></path><path class="link" marker-end="" d="M810,486, 790,560" style="stroke-width: 0.5; stroke-opacity: 1; stroke: rgb(80, 80, 80); fill: none;"></path><path class="link" marker-end="" d="M850,486, 790,560" style="stroke-width: 0.5; stroke-opacity: 1; stroke: rgb(80, 80, 80); fill: none;"></path><path class="link" marker-end="" d="M890,486, 790,560" style="stroke-width: 0.5; stroke-opacity: 1; stroke: rgb(80, 80, 80); fill: none;"></path><path class="link" marker-end="" d="M930,486, 790,560" style="stroke-width: 0.5; stroke-opacity: 1; stroke: rgb(80, 80, 80); fill: none;"></path><circle r="10" class="node" id="0_0" cx="670" cy="338" style="fill: rgb(255, 255, 255); stroke: rgb(51, 51, 51);"></circle><circle r="10" class="node" id="0_1" cx="710" cy="338" style="fill: rgb(255, 255, 255); stroke: rgb(51, 51, 51);"></circle><circle r="10" class="node" id="0_2" cx="750" cy="338" style="fill: rgb(255, 255, 255); stroke: rgb(51, 51, 51);"></circle><circle r="10" class="node" id="1_0" cx="490" cy="412" style="fill: rgb(255, 255, 255); stroke: rgb(51, 51, 51);"></circle><circle r="10" class="node" id="1_1" cx="530" cy="412" style="fill: rgb(255, 255, 255); stroke: rgb(51, 51, 51);"></circle><circle r="10" class="node" id="1_2" cx="570" cy="412" style="fill: rgb(255, 255, 255); stroke: rgb(51, 51, 51);"></circle><circle r="10" class="node" id="1_3" cx="610" cy="412" style="fill: rgb(255, 255, 255); stroke: rgb(51, 51, 51);"></circle><circle r="10" class="node" id="1_4" cx="650" cy="412" style="fill: rgb(255, 255, 255); stroke: rgb(51, 51, 51);"></circle><circle r="10" class="node" id="1_5" cx="690" cy="412" style="fill: rgb(255, 255, 255); stroke: rgb(51, 51, 51);"></circle><circle r="10" class="node" id="1_6" cx="730" cy="412" style="fill: rgb(255, 255, 255); stroke: rgb(51, 51, 51);"></circle><circle r="10" class="node" id="1_7" cx="770" cy="412" style="fill: rgb(255, 255, 255); stroke: rgb(51, 51, 51);"></circle><circle r="10" class="node" id="1_8" cx="810" cy="412" style="fill: rgb(255, 255, 255); stroke: rgb(51, 51, 51);"></circle><circle r="10" class="node" id="1_9" cx="850" cy="412" style="fill: rgb(255, 255, 255); stroke: rgb(51, 51, 51);"></circle><circle r="10" class="node" id="1_10" cx="890" cy="412" style="fill: rgb(255, 255, 255); stroke: rgb(51, 51, 51);"></circle><circle r="10" class="node" id="1_11" cx="930" cy="412" style="fill: rgb(255, 255, 255); stroke: rgb(51, 51, 51);"></circle><circle r="10" class="node" id="2_0" cx="490" cy="486" style="fill: rgb(255, 255, 255); stroke: rgb(51, 51, 51);"></circle><circle r="10" class="node" id="2_1" cx="530" cy="486" style="fill: rgb(255, 255, 255); stroke: rgb(51, 51, 51);"></circle><circle r="10" class="node" id="2_2" cx="570" cy="486" style="fill: rgb(255, 255, 255); stroke: rgb(51, 51, 51);"></circle><circle r="10" class="node" id="2_3" cx="610" cy="486" style="fill: rgb(255, 255, 255); stroke: rgb(51, 51, 51);"></circle><circle r="10" class="node" id="2_4" cx="650" cy="486" style="fill: rgb(255, 255, 255); stroke: rgb(51, 51, 51);"></circle><circle r="10" class="node" id="2_5" cx="690" cy="486" style="fill: rgb(255, 255, 255); stroke: rgb(51, 51, 51);"></circle><circle r="10" class="node" id="2_6" cx="730" cy="486" style="fill: rgb(255, 255, 255); stroke: rgb(51, 51, 51);"></circle><circle r="10" class="node" id="2_7" cx="770" cy="486" style="fill: rgb(255, 255, 255); stroke: rgb(51, 51, 51);"></circle><circle r="10" class="node" id="2_8" cx="810" cy="486" style="fill: rgb(255, 255, 255); stroke: rgb(51, 51, 51);"></circle><circle r="10" class="node" id="2_9" cx="850" cy="486" style="fill: rgb(255, 255, 255); stroke: rgb(51, 51, 51);"></circle><circle r="10" class="node" id="2_10" cx="890" cy="486" style="fill: rgb(255, 255, 255); stroke: rgb(51, 51, 51);"></circle><circle r="10" class="node" id="2_11" cx="930" cy="486" style="fill: rgb(255, 255, 255); stroke: rgb(51, 51, 51);"></circle><circle r="10" class="node" id="3_0" cx="630" cy="560" style="fill: rgb(255, 255, 255); stroke: rgb(51, 51, 51);"></circle><text class="text" dy=".35em" x="970" y="338" style="font-size: 12px;">Input Layer ∈ ℝ³</text><text class="text" dy=".35em" x="970" y="412" style="font-size: 12px;">Hidden Layer ∈ ℝ¹²</text><text class="text" dy=".35em" x="970" y="486" style="font-size: 12px;">Hidden Layer ∈ ℝ¹²</text><text class="text" dy=".35em" x="970" y="560" style="font-size: 12px;">Output Layer ∈ ℝ⁵</text><circle r="10" class="node" id="3_1" cx="670" cy="560" style="fill: rgb(255, 255, 255); stroke: rgb(51, 51, 51);"></circle><circle r="10" class="node" id="3_2" cx="710" cy="560" style="fill: rgb(255, 255, 255); stroke: rgb(51, 51, 51);"></circle><circle r="10" class="node" id="3_3" cx="750" cy="560" style="fill: rgb(255, 255, 255); stroke: rgb(51, 51, 51);"></circle><circle r="10" class="node" id="3_4" cx="790" cy="560" style="fill: rgb(255, 255, 255); stroke: rgb(51, 51, 51);"></circle></g><defs><marker id="arrow" viewBox="0 -5 10 10" markerWidth="7" markerHeight="7" orient="auto" refX="40"><path d="M0,-5L10,0L0,5" style="stroke: rgb(80, 80, 80); fill: none;"></path></marker></defs></svg>