<?xml version="1.0" encoding="utf-8" standalone="no"?>
<!DOCTYPE svg PUBLIC "-//W3C//DTD SVG 1.1//EN"
  "http://www.w3.org/Graphics/SVG/1.1/DTD/svg11.dtd">
<svg xmlns:xlink="http://www.w3.org/1999/xlink" width="720pt" height="432pt" viewBox="0 0 720 432" xmlns="http://www.w3.org/2000/svg" version="1.1">
 <metadata>
  <rdf:RDF xmlns:dc="http://purl.org/dc/elements/1.1/" xmlns:cc="http://creativecommons.org/ns#" xmlns:rdf="http://www.w3.org/1999/02/22-rdf-syntax-ns#">
   <cc:Work>
    <dc:type rdf:resource="http://purl.org/dc/dcmitype/StillImage"/>
    <dc:date>2024-07-23T00:32:27.085360</dc:date>
    <dc:format>image/svg+xml</dc:format>
    <dc:creator>
     <cc:Agent>
      <dc:title>Matplotlib v3.8.3, https://matplotlib.org/</dc:title>
     </cc:Agent>
    </dc:creator>
   </cc:Work>
  </rdf:RDF>
 </metadata>
 <defs>
  <style type="text/css">*{stroke-linejoin: round; stroke-linecap: butt}</style>
 </defs>
 <g id="figure_1">
  <g id="patch_1">
   <path d="M 0 432 
L 720 432 
L 720 0 
L 0 0 
z
" style="fill: #ffffff"/>
  </g>
  <g id="axes_1">
   <g id="patch_2">
    <path d="M 90 384.48 
L 648 384.48 
L 648 51.84 
L 90 51.84 
z
" style="fill: #ffffff"/>
   </g>
   <g id="matplotlib.axis_1">
    <g id="xtick_1">
     <g id="line2d_1">
      <path d="M 115.363636 384.48 
L 115.363636 51.84 
" clip-path="url(#p3a1634eb2b)" style="fill: none; stroke: #b0b0b0; stroke-width: 0.8; stroke-linecap: square"/>
     </g>
     <g id="line2d_2">
      <defs>
       <path id="m32916ab264" d="M 0 0 
L 0 3.5 
" style="stroke: #000000; stroke-width: 0.8"/>
      </defs>
      <g>
       <use xlink:href="#m32916ab264" x="115.363636" y="384.48" style="stroke: #000000; stroke-width: 0.8"/>
      </g>
     </g>
     <g id="text_1">
      <!-- 0 -->
      <g transform="translate(112.182386 399.078438) scale(0.1 -0.1)">
       <defs>
        <path id="DejaVuSans-30" d="M 2034 4250 
Q 1547 4250 1301 3770 
Q 1056 3291 1056 2328 
Q 1056 1369 1301 889 
Q 1547 409 2034 409 
Q 2525 409 2770 889 
Q 3016 1369 3016 2328 
Q 3016 3291 2770 3770 
Q 2525 4250 2034 4250 
z
M 2034 4750 
Q 2819 4750 3233 4129 
Q 3647 3509 3647 2328 
Q 3647 1150 3233 529 
Q 2819 -91 2034 -91 
Q 1250 -91 836 529 
Q 422 1150 422 2328 
Q 422 3509 836 4129 
Q 1250 4750 2034 4750 
z
" transform="scale(0.015625)"/>
       </defs>
       <use xlink:href="#DejaVuSans-30"/>
      </g>
     </g>
    </g>
    <g id="xtick_2">
     <g id="line2d_3">
      <path d="M 216.919738 384.48 
L 216.919738 51.84 
" clip-path="url(#p3a1634eb2b)" style="fill: none; stroke: #b0b0b0; stroke-width: 0.8; stroke-linecap: square"/>
     </g>
     <g id="line2d_4">
      <g>
       <use xlink:href="#m32916ab264" x="216.919738" y="384.48" style="stroke: #000000; stroke-width: 0.8"/>
      </g>
     </g>
     <g id="text_2">
      <!-- 200 -->
      <g transform="translate(207.375988 399.078438) scale(0.1 -0.1)">
       <defs>
        <path id="DejaVuSans-32" d="M 1228 531 
L 3431 531 
L 3431 0 
L 469 0 
L 469 531 
Q 828 903 1448 1529 
Q 2069 2156 2228 2338 
Q 2531 2678 2651 2914 
Q 2772 3150 2772 3378 
Q 2772 3750 2511 3984 
Q 2250 4219 1831 4219 
Q 1534 4219 1204 4116 
Q 875 4013 500 3803 
L 500 4441 
Q 881 4594 1212 4672 
Q 1544 4750 1819 4750 
Q 2544 4750 2975 4387 
Q 3406 4025 3406 3419 
Q 3406 3131 3298 2873 
Q 3191 2616 2906 2266 
Q 2828 2175 2409 1742 
Q 1991 1309 1228 531 
z
" transform="scale(0.015625)"/>
       </defs>
       <use xlink:href="#DejaVuSans-32"/>
       <use xlink:href="#DejaVuSans-30" x="63.623047"/>
       <use xlink:href="#DejaVuSans-30" x="127.246094"/>
      </g>
     </g>
    </g>
    <g id="xtick_3">
     <g id="line2d_5">
      <path d="M 318.475839 384.48 
L 318.475839 51.84 
" clip-path="url(#p3a1634eb2b)" style="fill: none; stroke: #b0b0b0; stroke-width: 0.8; stroke-linecap: square"/>
     </g>
     <g id="line2d_6">
      <g>
       <use xlink:href="#m32916ab264" x="318.475839" y="384.48" style="stroke: #000000; stroke-width: 0.8"/>
      </g>
     </g>
     <g id="text_3">
      <!-- 400 -->
      <g transform="translate(308.932089 399.078438) scale(0.1 -0.1)">
       <defs>
        <path id="DejaVuSans-34" d="M 2419 4116 
L 825 1625 
L 2419 1625 
L 2419 4116 
z
M 2253 4666 
L 3047 4666 
L 3047 1625 
L 3713 1625 
L 3713 1100 
L 3047 1100 
L 3047 0 
L 2419 0 
L 2419 1100 
L 313 1100 
L 313 1709 
L 2253 4666 
z
" transform="scale(0.015625)"/>
       </defs>
       <use xlink:href="#DejaVuSans-34"/>
       <use xlink:href="#DejaVuSans-30" x="63.623047"/>
       <use xlink:href="#DejaVuSans-30" x="127.246094"/>
      </g>
     </g>
    </g>
    <g id="xtick_4">
     <g id="line2d_7">
      <path d="M 420.031941 384.48 
L 420.031941 51.84 
" clip-path="url(#p3a1634eb2b)" style="fill: none; stroke: #b0b0b0; stroke-width: 0.8; stroke-linecap: square"/>
     </g>
     <g id="line2d_8">
      <g>
       <use xlink:href="#m32916ab264" x="420.031941" y="384.48" style="stroke: #000000; stroke-width: 0.8"/>
      </g>
     </g>
     <g id="text_4">
      <!-- 600 -->
      <g transform="translate(410.488191 399.078438) scale(0.1 -0.1)">
       <defs>
        <path id="DejaVuSans-36" d="M 2113 2584 
Q 1688 2584 1439 2293 
Q 1191 2003 1191 1497 
Q 1191 994 1439 701 
Q 1688 409 2113 409 
Q 2538 409 2786 701 
Q 3034 994 3034 1497 
Q 3034 2003 2786 2293 
Q 2538 2584 2113 2584 
z
M 3366 4563 
L 3366 3988 
Q 3128 4100 2886 4159 
Q 2644 4219 2406 4219 
Q 1781 4219 1451 3797 
Q 1122 3375 1075 2522 
Q 1259 2794 1537 2939 
Q 1816 3084 2150 3084 
Q 2853 3084 3261 2657 
Q 3669 2231 3669 1497 
Q 3669 778 3244 343 
Q 2819 -91 2113 -91 
Q 1303 -91 875 529 
Q 447 1150 447 2328 
Q 447 3434 972 4092 
Q 1497 4750 2381 4750 
Q 2619 4750 2861 4703 
Q 3103 4656 3366 4563 
z
" transform="scale(0.015625)"/>
       </defs>
       <use xlink:href="#DejaVuSans-36"/>
       <use xlink:href="#DejaVuSans-30" x="63.623047"/>
       <use xlink:href="#DejaVuSans-30" x="127.246094"/>
      </g>
     </g>
    </g>
    <g id="xtick_5">
     <g id="line2d_9">
      <path d="M 521.588043 384.48 
L 521.588043 51.84 
" clip-path="url(#p3a1634eb2b)" style="fill: none; stroke: #b0b0b0; stroke-width: 0.8; stroke-linecap: square"/>
     </g>
     <g id="line2d_10">
      <g>
       <use xlink:href="#m32916ab264" x="521.588043" y="384.48" style="stroke: #000000; stroke-width: 0.8"/>
      </g>
     </g>
     <g id="text_5">
      <!-- 800 -->
      <g transform="translate(512.044293 399.078438) scale(0.1 -0.1)">
       <defs>
        <path id="DejaVuSans-38" d="M 2034 2216 
Q 1584 2216 1326 1975 
Q 1069 1734 1069 1313 
Q 1069 891 1326 650 
Q 1584 409 2034 409 
Q 2484 409 2743 651 
Q 3003 894 3003 1313 
Q 3003 1734 2745 1975 
Q 2488 2216 2034 2216 
z
M 1403 2484 
Q 997 2584 770 2862 
Q 544 3141 544 3541 
Q 544 4100 942 4425 
Q 1341 4750 2034 4750 
Q 2731 4750 3128 4425 
Q 3525 4100 3525 3541 
Q 3525 3141 3298 2862 
Q 3072 2584 2669 2484 
Q 3125 2378 3379 2068 
Q 3634 1759 3634 1313 
Q 3634 634 3220 271 
Q 2806 -91 2034 -91 
Q 1263 -91 848 271 
Q 434 634 434 1313 
Q 434 1759 690 2068 
Q 947 2378 1403 2484 
z
M 1172 3481 
Q 1172 3119 1398 2916 
Q 1625 2713 2034 2713 
Q 2441 2713 2670 2916 
Q 2900 3119 2900 3481 
Q 2900 3844 2670 4047 
Q 2441 4250 2034 4250 
Q 1625 4250 1398 4047 
Q 1172 3844 1172 3481 
z
" transform="scale(0.015625)"/>
       </defs>
       <use xlink:href="#DejaVuSans-38"/>
       <use xlink:href="#DejaVuSans-30" x="63.623047"/>
       <use xlink:href="#DejaVuSans-30" x="127.246094"/>
      </g>
     </g>
    </g>
    <g id="xtick_6">
     <g id="line2d_11">
      <path d="M 623.144144 384.48 
L 623.144144 51.84 
" clip-path="url(#p3a1634eb2b)" style="fill: none; stroke: #b0b0b0; stroke-width: 0.8; stroke-linecap: square"/>
     </g>
     <g id="line2d_12">
      <g>
       <use xlink:href="#m32916ab264" x="623.144144" y="384.48" style="stroke: #000000; stroke-width: 0.8"/>
      </g>
     </g>
     <g id="text_6">
      <!-- 1000 -->
      <g transform="translate(610.419144 399.078438) scale(0.1 -0.1)">
       <defs>
        <path id="DejaVuSans-31" d="M 794 531 
L 1825 531 
L 1825 4091 
L 703 3866 
L 703 4441 
L 1819 4666 
L 2450 4666 
L 2450 531 
L 3481 531 
L 3481 0 
L 794 0 
L 794 531 
z
" transform="scale(0.015625)"/>
       </defs>
       <use xlink:href="#DejaVuSans-31"/>
       <use xlink:href="#DejaVuSans-30" x="63.623047"/>
       <use xlink:href="#DejaVuSans-30" x="127.246094"/>
       <use xlink:href="#DejaVuSans-30" x="190.869141"/>
      </g>
     </g>
    </g>
    <g id="text_7">
     <!-- Epochs -->
     <g transform="translate(351.084375 412.756563) scale(0.1 -0.1)">
      <defs>
       <path id="DejaVuSans-45" d="M 628 4666 
L 3578 4666 
L 3578 4134 
L 1259 4134 
L 1259 2753 
L 3481 2753 
L 3481 2222 
L 1259 2222 
L 1259 531 
L 3634 531 
L 3634 0 
L 628 0 
L 628 4666 
z
" transform="scale(0.015625)"/>
       <path id="DejaVuSans-70" d="M 1159 525 
L 1159 -1331 
L 581 -1331 
L 581 3500 
L 1159 3500 
L 1159 2969 
Q 1341 3281 1617 3432 
Q 1894 3584 2278 3584 
Q 2916 3584 3314 3078 
Q 3713 2572 3713 1747 
Q 3713 922 3314 415 
Q 2916 -91 2278 -91 
Q 1894 -91 1617 61 
Q 1341 213 1159 525 
z
M 3116 1747 
Q 3116 2381 2855 2742 
Q 2594 3103 2138 3103 
Q 1681 3103 1420 2742 
Q 1159 2381 1159 1747 
Q 1159 1113 1420 752 
Q 1681 391 2138 391 
Q 2594 391 2855 752 
Q 3116 1113 3116 1747 
z
" transform="scale(0.015625)"/>
       <path id="DejaVuSans-6f" d="M 1959 3097 
Q 1497 3097 1228 2736 
Q 959 2375 959 1747 
Q 959 1119 1226 758 
Q 1494 397 1959 397 
Q 2419 397 2687 759 
Q 2956 1122 2956 1747 
Q 2956 2369 2687 2733 
Q 2419 3097 1959 3097 
z
M 1959 3584 
Q 2709 3584 3137 3096 
Q 3566 2609 3566 1747 
Q 3566 888 3137 398 
Q 2709 -91 1959 -91 
Q 1206 -91 779 398 
Q 353 888 353 1747 
Q 353 2609 779 3096 
Q 1206 3584 1959 3584 
z
" transform="scale(0.015625)"/>
       <path id="DejaVuSans-63" d="M 3122 3366 
L 3122 2828 
Q 2878 2963 2633 3030 
Q 2388 3097 2138 3097 
Q 1578 3097 1268 2742 
Q 959 2388 959 1747 
Q 959 1106 1268 751 
Q 1578 397 2138 397 
Q 2388 397 2633 464 
Q 2878 531 3122 666 
L 3122 134 
Q 2881 22 2623 -34 
Q 2366 -91 2075 -91 
Q 1284 -91 818 406 
Q 353 903 353 1747 
Q 353 2603 823 3093 
Q 1294 3584 2113 3584 
Q 2378 3584 2631 3529 
Q 2884 3475 3122 3366 
z
" transform="scale(0.015625)"/>
       <path id="DejaVuSans-68" d="M 3513 2113 
L 3513 0 
L 2938 0 
L 2938 2094 
Q 2938 2591 2744 2837 
Q 2550 3084 2163 3084 
Q 1697 3084 1428 2787 
Q 1159 2491 1159 1978 
L 1159 0 
L 581 0 
L 581 4863 
L 1159 4863 
L 1159 2956 
Q 1366 3272 1645 3428 
Q 1925 3584 2291 3584 
Q 2894 3584 3203 3211 
Q 3513 2838 3513 2113 
z
" transform="scale(0.015625)"/>
       <path id="DejaVuSans-73" d="M 2834 3397 
L 2834 2853 
Q 2591 2978 2328 3040 
Q 2066 3103 1784 3103 
Q 1356 3103 1142 2972 
Q 928 2841 928 2578 
Q 928 2378 1081 2264 
Q 1234 2150 1697 2047 
L 1894 2003 
Q 2506 1872 2764 1633 
Q 3022 1394 3022 966 
Q 3022 478 2636 193 
Q 2250 -91 1575 -91 
Q 1294 -91 989 -36 
Q 684 19 347 128 
L 347 722 
Q 666 556 975 473 
Q 1284 391 1588 391 
Q 1994 391 2212 530 
Q 2431 669 2431 922 
Q 2431 1156 2273 1281 
Q 2116 1406 1581 1522 
L 1381 1569 
Q 847 1681 609 1914 
Q 372 2147 372 2553 
Q 372 3047 722 3315 
Q 1072 3584 1716 3584 
Q 2034 3584 2315 3537 
Q 2597 3491 2834 3397 
z
" transform="scale(0.015625)"/>
      </defs>
      <use xlink:href="#DejaVuSans-45"/>
      <use xlink:href="#DejaVuSans-70" x="63.183594"/>
      <use xlink:href="#DejaVuSans-6f" x="126.660156"/>
      <use xlink:href="#DejaVuSans-63" x="187.841797"/>
      <use xlink:href="#DejaVuSans-68" x="242.822266"/>
      <use xlink:href="#DejaVuSans-73" x="306.201172"/>
     </g>
    </g>
   </g>
   <g id="matplotlib.axis_2">
    <g id="ytick_1">
     <g id="line2d_13">
      <path d="M 90 370.631796 
L 648 370.631796 
" clip-path="url(#p3a1634eb2b)" style="fill: none; stroke: #b0b0b0; stroke-width: 0.8; stroke-linecap: square"/>
     </g>
     <g id="line2d_14">
      <defs>
       <path id="m2b698a7633" d="M 0 0 
L -3.5 0 
" style="stroke: #000000; stroke-width: 0.8"/>
      </defs>
      <g>
       <use xlink:href="#m2b698a7633" x="90" y="370.631796" style="stroke: #000000; stroke-width: 0.8"/>
      </g>
     </g>
     <g id="text_8">
      <!-- 0.0 -->
      <g transform="translate(67.096875 374.431015) scale(0.1 -0.1)">
       <defs>
        <path id="DejaVuSans-2e" d="M 684 794 
L 1344 794 
L 1344 0 
L 684 0 
L 684 794 
z
" transform="scale(0.015625)"/>
       </defs>
       <use xlink:href="#DejaVuSans-30"/>
       <use xlink:href="#DejaVuSans-2e" x="63.623047"/>
       <use xlink:href="#DejaVuSans-30" x="95.410156"/>
      </g>
     </g>
    </g>
    <g id="ytick_2">
     <g id="line2d_15">
      <path d="M 90 305.429831 
L 648 305.429831 
" clip-path="url(#p3a1634eb2b)" style="fill: none; stroke: #b0b0b0; stroke-width: 0.8; stroke-linecap: square"/>
     </g>
     <g id="line2d_16">
      <g>
       <use xlink:href="#m2b698a7633" x="90" y="305.429831" style="stroke: #000000; stroke-width: 0.8"/>
      </g>
     </g>
     <g id="text_9">
      <!-- 0.5 -->
      <g transform="translate(67.096875 309.22905) scale(0.1 -0.1)">
       <defs>
        <path id="DejaVuSans-35" d="M 691 4666 
L 3169 4666 
L 3169 4134 
L 1269 4134 
L 1269 2991 
Q 1406 3038 1543 3061 
Q 1681 3084 1819 3084 
Q 2600 3084 3056 2656 
Q 3513 2228 3513 1497 
Q 3513 744 3044 326 
Q 2575 -91 1722 -91 
Q 1428 -91 1123 -41 
Q 819 9 494 109 
L 494 744 
Q 775 591 1075 516 
Q 1375 441 1709 441 
Q 2250 441 2565 725 
Q 2881 1009 2881 1497 
Q 2881 1984 2565 2268 
Q 2250 2553 1709 2553 
Q 1456 2553 1204 2497 
Q 953 2441 691 2322 
L 691 4666 
z
" transform="scale(0.015625)"/>
       </defs>
       <use xlink:href="#DejaVuSans-30"/>
       <use xlink:href="#DejaVuSans-2e" x="63.623047"/>
       <use xlink:href="#DejaVuSans-35" x="95.410156"/>
      </g>
     </g>
    </g>
    <g id="ytick_3">
     <g id="line2d_17">
      <path d="M 90 240.227866 
L 648 240.227866 
" clip-path="url(#p3a1634eb2b)" style="fill: none; stroke: #b0b0b0; stroke-width: 0.8; stroke-linecap: square"/>
     </g>
     <g id="line2d_18">
      <g>
       <use xlink:href="#m2b698a7633" x="90" y="240.227866" style="stroke: #000000; stroke-width: 0.8"/>
      </g>
     </g>
     <g id="text_10">
      <!-- 1.0 -->
      <g transform="translate(67.096875 244.027085) scale(0.1 -0.1)">
       <use xlink:href="#DejaVuSans-31"/>
       <use xlink:href="#DejaVuSans-2e" x="63.623047"/>
       <use xlink:href="#DejaVuSans-30" x="95.410156"/>
      </g>
     </g>
    </g>
    <g id="ytick_4">
     <g id="line2d_19">
      <path d="M 90 175.025901 
L 648 175.025901 
" clip-path="url(#p3a1634eb2b)" style="fill: none; stroke: #b0b0b0; stroke-width: 0.8; stroke-linecap: square"/>
     </g>
     <g id="line2d_20">
      <g>
       <use xlink:href="#m2b698a7633" x="90" y="175.025901" style="stroke: #000000; stroke-width: 0.8"/>
      </g>
     </g>
     <g id="text_11">
      <!-- 1.5 -->
      <g transform="translate(67.096875 178.82512) scale(0.1 -0.1)">
       <use xlink:href="#DejaVuSans-31"/>
       <use xlink:href="#DejaVuSans-2e" x="63.623047"/>
       <use xlink:href="#DejaVuSans-35" x="95.410156"/>
      </g>
     </g>
    </g>
    <g id="ytick_5">
     <g id="line2d_21">
      <path d="M 90 109.823936 
L 648 109.823936 
" clip-path="url(#p3a1634eb2b)" style="fill: none; stroke: #b0b0b0; stroke-width: 0.8; stroke-linecap: square"/>
     </g>
     <g id="line2d_22">
      <g>
       <use xlink:href="#m2b698a7633" x="90" y="109.823936" style="stroke: #000000; stroke-width: 0.8"/>
      </g>
     </g>
     <g id="text_12">
      <!-- 2.0 -->
      <g transform="translate(67.096875 113.623155) scale(0.1 -0.1)">
       <use xlink:href="#DejaVuSans-32"/>
       <use xlink:href="#DejaVuSans-2e" x="63.623047"/>
       <use xlink:href="#DejaVuSans-30" x="95.410156"/>
      </g>
     </g>
    </g>
    <g id="text_13">
     <!-- Loss -->
     <g transform="translate(61.017187 229.127187) rotate(-90) scale(0.1 -0.1)">
      <defs>
       <path id="DejaVuSans-4c" d="M 628 4666 
L 1259 4666 
L 1259 531 
L 3531 531 
L 3531 0 
L 628 0 
L 628 4666 
z
" transform="scale(0.015625)"/>
      </defs>
      <use xlink:href="#DejaVuSans-4c"/>
      <use xlink:href="#DejaVuSans-6f" x="53.962891"/>
      <use xlink:href="#DejaVuSans-73" x="115.144531"/>
      <use xlink:href="#DejaVuSans-73" x="167.244141"/>
     </g>
    </g>
   </g>
   <g id="line2d_23">
    <path d="M 115.363636 66.96 
L 117.394758 67.739258 
L 119.42588 68.31882 
L 121.457002 68.700987 
L 123.995905 68.93709 
L 127.550369 68.982545 
L 137.198198 68.981146 
L 156.493857 69.001199 
L 232.153153 69.175183 
L 246.878788 69.366266 
L 262.619984 69.884175 
L 268.205569 70.242154 
L 278.86896 71.505681 
L 284.454545 72.630357 
L 291.563473 74.917763 
L 293.086814 75.631202 
L 294.102375 76.093863 
L 295.117936 76.57465 
L 297.149058 77.656203 
L 299.687961 79.410714 
L 300.195741 79.689442 
L 301.719083 80.969261 
L 302.734644 81.658324 
L 303.242424 82.229336 
L 303.750205 82.479275 
L 304.765766 83.511518 
L 308.320229 87.209293 
L 309.33579 88.563231 
L 309.843571 89.038919 
L 312.890254 93.195282 
L 313.398034 94.015238 
L 313.905815 94.556278 
L 314.921376 96.118463 
L 315.429156 97.196191 
L 316.444717 98.522242 
L 317.460278 100.415853 
L 319.4914 104.151372 
L 319.999181 105.252698 
L 320.506962 105.910796 
L 321.014742 107.094451 
L 321.522523 107.91537 
L 322.030303 109.063954 
L 322.538084 109.892398 
L 325.076986 115.419628 
L 325.584767 116.534137 
L 326.092547 117.378996 
L 326.600328 118.975365 
L 327.108108 119.955002 
L 327.615889 121.393477 
L 328.123669 121.849142 
L 328.63145 123.390418 
L 329.13923 124.423392 
L 329.647011 125.919166 
L 330.154791 126.758274 
L 330.662572 128.118213 
L 331.170352 129.030819 
L 332.185913 131.88134 
L 334.217035 136.095345 
L 334.724816 137.747615 
L 335.232596 138.734854 
L 336.248157 141.128264 
L 336.755938 142.062199 
L 337.263718 143.543034 
L 337.771499 144.310944 
L 338.279279 145.921163 
L 338.78706 146.641411 
L 340.310401 150.296669 
L 340.818182 151.490009 
L 341.325962 152.288776 
L 341.833743 153.630947 
L 342.341523 154.463976 
L 342.849304 156.114815 
L 343.357084 156.945311 
L 344.372645 159.118101 
L 344.880426 159.788355 
L 345.388206 161.156315 
L 346.403767 163.156957 
L 347.419328 165.206674 
L 347.927109 166.113047 
L 348.94267 168.544978 
L 349.958231 170.002636 
L 350.466011 170.942337 
L 350.973792 172.155373 
L 353.512695 176.769671 
L 354.528256 178.649556 
L 355.036036 179.247601 
L 355.543817 180.153274 
L 356.051597 181.339882 
L 357.067158 182.826532 
L 357.574939 184.056916 
L 358.082719 184.518069 
L 359.606061 187.415444 
L 360.113841 187.896417 
L 360.621622 188.763398 
L 361.129402 190.128607 
L 362.144963 191.595622 
L 362.652744 192.086016 
L 363.160524 193.257701 
L 364.176085 194.613987 
L 366.207207 198.198452 
L 366.714988 198.933374 
L 367.730549 200.717204 
L 369.25389 203.298247 
L 369.761671 203.860569 
L 370.777232 205.807564 
L 371.285012 206.225889 
L 371.792793 207.560365 
L 372.300573 207.876371 
L 372.808354 209.070861 
L 373.316134 209.296533 
L 374.331695 211.429232 
L 374.839476 211.796709 
L 375.347256 212.639267 
L 375.855037 213.980583 
L 376.362817 214.648303 
L 376.870598 214.703598 
L 377.886159 217.170475 
L 378.393939 217.296113 
L 378.90172 218.730623 
L 379.4095 219.365698 
L 379.917281 219.571332 
L 380.425061 221.557936 
L 380.932842 221.492225 
L 381.948403 223.753282 
L 382.456183 224.206834 
L 383.471744 226.038932 
L 383.979525 227.306625 
L 384.487305 227.613724 
L 384.995086 228.687426 
L 385.502867 230.091654 
L 386.010647 229.998242 
L 387.026208 232.231224 
L 387.533989 232.785727 
L 388.041769 233.818141 
L 388.54955 233.957941 
L 389.05733 235.552071 
L 389.565111 236.730735 
L 390.072891 236.239455 
L 390.580672 238.396188 
L 391.596233 238.496642 
L 392.104013 240.294976 
L 392.611794 241.148113 
L 393.119574 241.624562 
L 393.627355 242.448909 
L 394.135135 242.774033 
L 395.150696 245.459595 
L 395.658477 245.209439 
L 396.166257 246.916708 
L 396.674038 247.185783 
L 397.181818 248.264895 
L 397.689599 249.062729 
L 398.197379 248.852564 
L 398.70516 250.335591 
L 399.21294 251.400013 
L 399.720721 253.07808 
L 400.228501 253.135466 
L 400.736282 253.827981 
L 401.244062 254.828138 
L 401.751843 256.137275 
L 402.259623 256.210393 
L 403.275184 258.621082 
L 403.782965 258.291714 
L 404.290745 258.99902 
L 404.798526 260.361128 
L 405.306306 262.267588 
L 405.814087 260.825701 
L 406.321867 261.88291 
L 406.829648 263.824891 
L 407.337428 264.631695 
L 407.845209 264.403955 
L 408.352989 265.674579 
L 408.86077 264.417736 
L 409.36855 266.450953 
L 409.876331 266.931421 
L 410.891892 268.822864 
L 411.399672 270.303777 
L 411.907453 270.227022 
L 413.938575 273.340524 
L 414.954136 273.489659 
L 415.461916 276.081816 
L 415.969697 275.409985 
L 416.477477 276.927056 
L 416.985258 278.956869 
L 418.000819 280.107248 
L 418.5086 279.250435 
L 419.01638 281.870838 
L 419.524161 281.789552 
L 420.031941 281.163804 
L 420.539722 281.491081 
L 421.047502 283.809819 
L 421.555283 284.800906 
L 422.063063 282.938704 
L 422.570844 284.966806 
L 423.078624 285.657198 
L 423.586405 283.633084 
L 424.094185 285.406017 
L 424.601966 288.172974 
L 425.109746 287.971864 
L 425.617527 289.044151 
L 426.633088 288.287885 
L 427.140868 289.911606 
L 427.648649 289.58143 
L 428.156429 292.229334 
L 428.66421 290.578673 
L 429.17199 293.067003 
L 429.679771 291.950885 
L 430.187551 293.362318 
L 430.695332 292.254672 
L 431.203112 295.637304 
L 431.710893 294.89544 
L 432.218673 296.299179 
L 432.726454 296.249177 
L 433.234234 294.122572 
L 433.742015 297.684317 
L 434.249795 297.903576 
L 434.757576 295.705167 
L 435.265356 298.732517 
L 435.773137 300.499131 
L 436.280917 299.237928 
L 436.788698 299.667672 
L 437.296478 299.906479 
L 437.804259 304.473994 
L 438.312039 300.403146 
L 438.81982 299.036569 
L 439.3276 304.016035 
L 439.835381 304.142217 
L 440.343161 302.311533 
L 440.850942 303.91618 
L 441.358722 303.607449 
L 441.866503 303.75827 
L 442.374283 305.321947 
L 442.882064 303.267977 
L 443.897625 307.711412 
L 444.405405 307.017226 
L 444.913186 307.303949 
L 445.928747 308.661187 
L 446.436527 306.317059 
L 446.944308 308.449222 
L 447.452088 309.779812 
L 447.959869 310.161524 
L 448.467649 308.584611 
L 448.97543 308.795036 
L 449.48321 311.922483 
L 449.990991 311.042456 
L 450.498771 313.561108 
L 451.006552 311.925441 
L 451.514333 311.418355 
L 452.022113 314.367873 
L 452.529894 311.755845 
L 453.545455 314.218412 
L 454.053235 311.279267 
L 454.561016 314.843204 
L 455.068796 315.755996 
L 455.576577 316.119139 
L 456.084357 315.33884 
L 456.592138 316.340595 
L 457.099918 313.246893 
L 457.607699 317.624121 
L 458.115479 318.985793 
L 458.62326 314.109669 
L 459.13104 312.026252 
L 459.638821 313.167301 
L 460.146601 318.403005 
L 460.654382 321.456767 
L 461.162162 319.266212 
L 461.669943 320.723353 
L 462.177723 321.23113 
L 462.685504 319.935409 
L 463.193284 318.320557 
L 463.701065 322.406087 
L 464.208845 318.355021 
L 464.716626 319.712061 
L 465.224406 318.36703 
L 465.732187 323.189317 
L 466.239967 324.057432 
L 466.747748 325.194719 
L 467.255528 318.863409 
L 467.763309 323.845696 
L 468.271089 323.093814 
L 468.77887 325.587608 
L 469.28665 322.04088 
L 469.794431 323.743905 
L 470.302211 324.029726 
L 470.809992 323.268458 
L 471.317772 323.203059 
L 471.825553 323.777887 
L 472.333333 324.935154 
L 472.841114 325.568402 
L 473.348894 325.083628 
L 473.856675 328.023376 
L 474.364455 325.554489 
L 474.872236 323.946772 
L 475.380016 325.183336 
L 475.887797 323.875823 
L 476.395577 327.339761 
L 476.903358 329.588432 
L 477.411138 330.209687 
L 477.918919 326.592647 
L 478.426699 328.776028 
L 478.93448 323.292554 
L 479.44226 325.997532 
L 479.950041 326.186777 
L 480.457821 328.530469 
L 480.965602 328.395279 
L 481.473382 325.102543 
L 481.981163 329.660551 
L 482.488943 328.103431 
L 483.504505 331.002026 
L 484.012285 329.015317 
L 484.520066 330.79167 
L 485.027846 331.286421 
L 485.535627 329.784444 
L 486.043407 330.505465 
L 486.551188 332.05098 
L 487.058968 332.488042 
L 487.566749 332.61373 
L 488.074529 330.933082 
L 488.58231 328.115618 
L 489.09009 330.499818 
L 489.597871 327.876095 
L 490.105651 331.685155 
L 490.613432 331.063337 
L 491.121212 335.222957 
L 491.628993 333.459538 
L 492.136773 332.374021 
L 492.644554 328.79012 
L 493.152334 333.048207 
L 493.660115 333.301457 
L 494.167895 335.650326 
L 494.675676 331.696383 
L 495.183456 334.431216 
L 495.691237 332.615914 
L 496.199017 331.350048 
L 497.214578 336.402546 
L 497.722359 335.779014 
L 498.230139 331.417934 
L 498.73792 334.728377 
L 499.2457 335.526285 
L 499.753481 336.710018 
L 500.261261 337.035068 
L 500.769042 338.70298 
L 501.276822 334.37994 
L 501.784603 334.691457 
L 502.292383 333.572929 
L 502.800164 340.590433 
L 503.307944 330.170516 
L 504.323505 340.312204 
L 504.831286 338.19214 
L 505.339066 331.895861 
L 506.354627 335.171882 
L 507.370188 332.767318 
L 507.877969 340.597765 
L 508.385749 338.166906 
L 508.89353 329.077417 
L 509.909091 342.025116 
L 510.416871 333.578922 
L 510.924652 335.578634 
L 511.940213 337.585529 
L 512.447993 338.09495 
L 512.955774 335.755004 
L 513.463554 334.572993 
L 513.971335 340.748353 
L 514.479115 341.031822 
L 514.986896 340.320743 
L 515.494676 342.005692 
L 516.002457 339.939749 
L 516.510238 344.534464 
L 517.018018 338.045205 
L 517.525799 336.435083 
L 518.033579 336.332522 
L 518.54136 343.082216 
L 519.04914 337.989708 
L 519.556921 340.443104 
L 520.064701 340.157524 
L 520.572482 338.376041 
L 521.080262 340.930198 
L 521.588043 337.687149 
L 522.095823 344.690559 
L 522.603604 339.038091 
L 523.111384 340.424127 
L 523.619165 343.943237 
L 524.126945 343.684356 
L 524.634726 338.929184 
L 525.142506 340.561641 
L 525.650287 340.289046 
L 526.158067 337.560831 
L 526.665848 339.535426 
L 527.173628 344.589726 
L 527.681409 345.389898 
L 528.189189 338.585391 
L 528.69697 344.416498 
L 529.20475 341.482537 
L 529.712531 343.132377 
L 530.220311 341.72951 
L 530.728092 339.920963 
L 531.235872 344.616369 
L 531.743653 343.898461 
L 532.251433 340.660747 
L 532.759214 341.541869 
L 533.266994 344.042164 
L 533.774775 340.852085 
L 534.282555 340.416467 
L 534.790336 339.403426 
L 535.298116 343.335617 
L 535.805897 341.217154 
L 536.313677 341.029788 
L 536.821458 344.192303 
L 537.329238 345.598505 
L 537.837019 345.74967 
L 538.344799 343.530634 
L 538.85258 344.73414 
L 539.36036 340.838024 
L 539.868141 347.026914 
L 540.375921 344.595136 
L 540.883702 347.834044 
L 541.391482 343.320482 
L 541.899263 346.005448 
L 542.407043 347.148869 
L 542.914824 341.84966 
L 543.422604 346.899073 
L 543.930385 344.344222 
L 544.438165 340.252108 
L 544.945946 343.268094 
L 545.453726 344.959379 
L 545.961507 345.576271 
L 546.469287 343.129894 
L 546.977068 345.646666 
L 547.484848 345.600081 
L 547.992629 347.535358 
L 548.50041 345.297644 
L 549.00819 348.444893 
L 549.515971 346.603244 
L 550.023751 340.986261 
L 550.531532 348.923199 
L 551.039312 346.903662 
L 551.547093 343.677798 
L 552.054873 346.562648 
L 552.562654 344.120843 
L 553.070434 348.625548 
L 553.578215 346.373208 
L 554.085995 347.204982 
L 555.101556 350.93211 
L 555.609337 347.210979 
L 556.117117 344.90154 
L 556.624898 346.06895 
L 557.132678 344.46498 
L 557.640459 346.614967 
L 558.148239 345.686727 
L 558.65602 347.838729 
L 559.1638 345.989214 
L 559.671581 345.864164 
L 560.179361 344.557817 
L 560.687142 348.430895 
L 561.194922 345.84527 
L 561.702703 346.676813 
L 562.210483 346.163905 
L 562.718264 346.049262 
L 563.226044 349.718733 
L 563.733825 348.348973 
L 564.241605 349.657857 
L 564.749386 349.121733 
L 565.257166 346.315189 
L 565.764947 352.153062 
L 566.272727 346.732216 
L 567.288288 347.202936 
L 567.796069 343.565137 
L 568.303849 348.510889 
L 568.81163 347.058673 
L 569.31941 348.229425 
L 569.827191 348.326595 
L 570.334971 350.33526 
L 570.842752 348.988614 
L 571.350532 349.824455 
L 571.858313 352.853544 
L 572.366093 346.873055 
L 572.873874 350.114792 
L 573.381654 348.111393 
L 573.889435 351.210277 
L 574.397215 345.662051 
L 574.904996 351.862428 
L 575.412776 348.034463 
L 575.920557 345.12169 
L 576.428337 343.481223 
L 576.936118 348.270661 
L 577.443898 350.092667 
L 577.951679 347.445743 
L 578.459459 346.181897 
L 578.96724 352.676894 
L 579.47502 350.259505 
L 579.982801 350.650005 
L 580.490581 349.157491 
L 580.998362 350.031459 
L 581.506143 348.23958 
L 582.013923 350.197063 
L 582.521704 347.214632 
L 583.029484 349.739528 
L 583.537265 349.825086 
L 584.045045 350.800902 
L 584.552826 349.572832 
L 585.060606 352.49747 
L 585.568387 353.988384 
L 586.076167 349.26407 
L 586.583948 351.860615 
L 587.091728 349.526763 
L 587.599509 345.8729 
L 588.107289 351.933921 
L 588.61507 354.67526 
L 589.12285 347.930816 
L 589.630631 354.198841 
L 590.646192 348.101576 
L 591.153972 350.903546 
L 591.661753 351.34243 
L 592.169533 350.409743 
L 592.677314 350.119927 
L 593.185094 349.421575 
L 593.692875 345.585188 
L 594.200655 350.19514 
L 594.708436 353.335977 
L 595.216216 349.239963 
L 595.723997 350.98643 
L 596.231777 352.148082 
L 596.739558 354.318434 
L 597.247338 353.856569 
L 597.755119 353.239057 
L 598.262899 346.207599 
L 598.77068 354.72956 
L 599.27846 350.358551 
L 599.786241 347.096172 
L 600.294021 356.322711 
L 600.801802 352.617968 
L 601.309582 351.053679 
L 601.817363 354.215665 
L 602.325143 350.523005 
L 602.832924 348.437566 
L 603.340704 354.518837 
L 603.848485 350.675843 
L 604.356265 349.63794 
L 604.864046 349.175026 
L 605.371826 353.676667 
L 605.879607 349.951128 
L 606.387387 351.289665 
L 606.895168 350.60661 
L 607.402948 353.705053 
L 607.910729 348.075779 
L 608.418509 354.631302 
L 608.92629 352.121087 
L 609.43407 352.348055 
L 609.941851 356.076065 
L 610.449631 349.858905 
L 611.465192 352.971189 
L 611.972973 353.026222 
L 612.480753 353.693627 
L 613.496314 352.850476 
L 614.004095 352.839059 
L 614.511876 349.638802 
L 615.019656 355.622526 
L 615.527437 346.869771 
L 616.035217 352.833999 
L 616.542998 354.567069 
L 617.050778 354.230532 
L 617.558559 352.032663 
L 618.066339 351.628255 
L 618.57412 354.569087 
L 619.0819 355.859787 
L 619.589681 353.951147 
L 620.097461 354.355292 
L 620.605242 346.970177 
L 621.113022 353.476136 
L 621.620803 348.287724 
L 622.128583 355.00542 
L 622.636364 352.950996 
L 622.636364 352.950996 
" clip-path="url(#p3a1634eb2b)" style="fill: none; stroke: #1f77b4; stroke-width: 1.5; stroke-linecap: square"/>
   </g>
   <g id="line2d_24">
    <path d="M 115.363636 307.632244 
L 118.410319 307.454171 
L 122.472563 306.963575 
L 127.550369 306.333852 
L 130.597052 306.175492 
L 134.151515 306.221809 
L 145.830467 306.583585 
L 249.925471 306.546804 
L 279.37674 306.731545 
L 293.594595 307.020825 
L 304.257985 307.488705 
L 309.843571 307.967538 
L 314.413595 308.5189 
L 318.98362 309.320843 
L 323.045864 310.207461 
L 326.600328 311.160135 
L 331.170352 312.670083 
L 337.771499 315.170538 
L 340.310401 316.347027 
L 351.989353 321.821842 
L 354.020475 322.793159 
L 356.559378 323.996354 
L 360.621622 326.103633 
L 366.207207 329.170235 
L 370.777232 331.249734 
L 372.808354 332.496009 
L 374.839476 333.722375 
L 377.886159 335.392755 
L 382.456183 338.440127 
L 386.518428 340.478489 
L 390.072891 342.853705 
L 392.611794 343.916686 
L 395.150696 345.029533 
L 397.181818 346.277804 
L 400.228501 348.272723 
L 402.767404 349.448552 
L 404.290745 350.184573 
L 408.352989 352.391627 
L 409.876331 353.218615 
L 411.907453 354.021033 
L 414.954136 355.084747 
L 418.5086 356.346299 
L 420.539722 356.981058 
L 426.125307 359.199705 
L 442.882064 362.947551 
L 444.913186 363.275614 
L 449.48321 363.886495 
L 455.068796 364.697203 
L 459.638821 365.160764 
L 462.685504 365.454698 
L 466.239967 365.768923 
L 475.380016 366.541514 
L 484.520066 367.00386 
L 508.89353 367.850474 
L 510.416871 367.896884 
L 514.986896 368.023541 
L 520.064701 368.179515 
L 523.111384 368.21964 
L 526.665848 368.364265 
L 535.805897 368.51822 
L 539.36036 368.571218 
L 549.00819 368.758381 
L 552.054873 368.83803 
L 571.858313 368.922258 
L 574.904996 369.057516 
L 576.936118 368.992056 
L 578.96724 368.81887 
L 584.045045 369.099902 
L 619.0819 369.278362 
L 621.113022 369.36 
L 622.636364 369.340132 
L 622.636364 369.340132 
" clip-path="url(#p3a1634eb2b)" style="fill: none; stroke: #ff7f0e; stroke-width: 1.5; stroke-linecap: square"/>
   </g>
   <g id="patch_3">
    <path d="M 90 384.48 
L 90 51.84 
" style="fill: none; stroke: #000000; stroke-width: 0.8; stroke-linejoin: miter; stroke-linecap: square"/>
   </g>
   <g id="patch_4">
    <path d="M 648 384.48 
L 648 51.84 
" style="fill: none; stroke: #000000; stroke-width: 0.8; stroke-linejoin: miter; stroke-linecap: square"/>
   </g>
   <g id="patch_5">
    <path d="M 90 384.48 
L 648 384.48 
" style="fill: none; stroke: #000000; stroke-width: 0.8; stroke-linejoin: miter; stroke-linecap: square"/>
   </g>
   <g id="patch_6">
    <path d="M 90 51.84 
L 648 51.84 
" style="fill: none; stroke: #000000; stroke-width: 0.8; stroke-linejoin: miter; stroke-linecap: square"/>
   </g>
   <g id="text_14">
    <!-- Training/validation loss -->
    <g transform="translate(300.270938 45.84) scale(0.12 -0.12)">
     <defs>
      <path id="DejaVuSans-54" d="M -19 4666 
L 3928 4666 
L 3928 4134 
L 2272 4134 
L 2272 0 
L 1638 0 
L 1638 4134 
L -19 4134 
L -19 4666 
z
" transform="scale(0.015625)"/>
      <path id="DejaVuSans-72" d="M 2631 2963 
Q 2534 3019 2420 3045 
Q 2306 3072 2169 3072 
Q 1681 3072 1420 2755 
Q 1159 2438 1159 1844 
L 1159 0 
L 581 0 
L 581 3500 
L 1159 3500 
L 1159 2956 
Q 1341 3275 1631 3429 
Q 1922 3584 2338 3584 
Q 2397 3584 2469 3576 
Q 2541 3569 2628 3553 
L 2631 2963 
z
" transform="scale(0.015625)"/>
      <path id="DejaVuSans-61" d="M 2194 1759 
Q 1497 1759 1228 1600 
Q 959 1441 959 1056 
Q 959 750 1161 570 
Q 1363 391 1709 391 
Q 2188 391 2477 730 
Q 2766 1069 2766 1631 
L 2766 1759 
L 2194 1759 
z
M 3341 1997 
L 3341 0 
L 2766 0 
L 2766 531 
Q 2569 213 2275 61 
Q 1981 -91 1556 -91 
Q 1019 -91 701 211 
Q 384 513 384 1019 
Q 384 1609 779 1909 
Q 1175 2209 1959 2209 
L 2766 2209 
L 2766 2266 
Q 2766 2663 2505 2880 
Q 2244 3097 1772 3097 
Q 1472 3097 1187 3025 
Q 903 2953 641 2809 
L 641 3341 
Q 956 3463 1253 3523 
Q 1550 3584 1831 3584 
Q 2591 3584 2966 3190 
Q 3341 2797 3341 1997 
z
" transform="scale(0.015625)"/>
      <path id="DejaVuSans-69" d="M 603 3500 
L 1178 3500 
L 1178 0 
L 603 0 
L 603 3500 
z
M 603 4863 
L 1178 4863 
L 1178 4134 
L 603 4134 
L 603 4863 
z
" transform="scale(0.015625)"/>
      <path id="DejaVuSans-6e" d="M 3513 2113 
L 3513 0 
L 2938 0 
L 2938 2094 
Q 2938 2591 2744 2837 
Q 2550 3084 2163 3084 
Q 1697 3084 1428 2787 
Q 1159 2491 1159 1978 
L 1159 0 
L 581 0 
L 581 3500 
L 1159 3500 
L 1159 2956 
Q 1366 3272 1645 3428 
Q 1925 3584 2291 3584 
Q 2894 3584 3203 3211 
Q 3513 2838 3513 2113 
z
" transform="scale(0.015625)"/>
      <path id="DejaVuSans-67" d="M 2906 1791 
Q 2906 2416 2648 2759 
Q 2391 3103 1925 3103 
Q 1463 3103 1205 2759 
Q 947 2416 947 1791 
Q 947 1169 1205 825 
Q 1463 481 1925 481 
Q 2391 481 2648 825 
Q 2906 1169 2906 1791 
z
M 3481 434 
Q 3481 -459 3084 -895 
Q 2688 -1331 1869 -1331 
Q 1566 -1331 1297 -1286 
Q 1028 -1241 775 -1147 
L 775 -588 
Q 1028 -725 1275 -790 
Q 1522 -856 1778 -856 
Q 2344 -856 2625 -561 
Q 2906 -266 2906 331 
L 2906 616 
Q 2728 306 2450 153 
Q 2172 0 1784 0 
Q 1141 0 747 490 
Q 353 981 353 1791 
Q 353 2603 747 3093 
Q 1141 3584 1784 3584 
Q 2172 3584 2450 3431 
Q 2728 3278 2906 2969 
L 2906 3500 
L 3481 3500 
L 3481 434 
z
" transform="scale(0.015625)"/>
      <path id="DejaVuSans-2f" d="M 1625 4666 
L 2156 4666 
L 531 -594 
L 0 -594 
L 1625 4666 
z
" transform="scale(0.015625)"/>
      <path id="DejaVuSans-76" d="M 191 3500 
L 800 3500 
L 1894 563 
L 2988 3500 
L 3597 3500 
L 2284 0 
L 1503 0 
L 191 3500 
z
" transform="scale(0.015625)"/>
      <path id="DejaVuSans-6c" d="M 603 4863 
L 1178 4863 
L 1178 0 
L 603 0 
L 603 4863 
z
" transform="scale(0.015625)"/>
      <path id="DejaVuSans-64" d="M 2906 2969 
L 2906 4863 
L 3481 4863 
L 3481 0 
L 2906 0 
L 2906 525 
Q 2725 213 2448 61 
Q 2172 -91 1784 -91 
Q 1150 -91 751 415 
Q 353 922 353 1747 
Q 353 2572 751 3078 
Q 1150 3584 1784 3584 
Q 2172 3584 2448 3432 
Q 2725 3281 2906 2969 
z
M 947 1747 
Q 947 1113 1208 752 
Q 1469 391 1925 391 
Q 2381 391 2643 752 
Q 2906 1113 2906 1747 
Q 2906 2381 2643 2742 
Q 2381 3103 1925 3103 
Q 1469 3103 1208 2742 
Q 947 2381 947 1747 
z
" transform="scale(0.015625)"/>
      <path id="DejaVuSans-74" d="M 1172 4494 
L 1172 3500 
L 2356 3500 
L 2356 3053 
L 1172 3053 
L 1172 1153 
Q 1172 725 1289 603 
Q 1406 481 1766 481 
L 2356 481 
L 2356 0 
L 1766 0 
Q 1100 0 847 248 
Q 594 497 594 1153 
L 594 3053 
L 172 3053 
L 172 3500 
L 594 3500 
L 594 4494 
L 1172 4494 
z
" transform="scale(0.015625)"/>
      <path id="DejaVuSans-20" transform="scale(0.015625)"/>
     </defs>
     <use xlink:href="#DejaVuSans-54"/>
     <use xlink:href="#DejaVuSans-72" x="46.333984"/>
     <use xlink:href="#DejaVuSans-61" x="87.447266"/>
     <use xlink:href="#DejaVuSans-69" x="148.726562"/>
     <use xlink:href="#DejaVuSans-6e" x="176.509766"/>
     <use xlink:href="#DejaVuSans-69" x="239.888672"/>
     <use xlink:href="#DejaVuSans-6e" x="267.671875"/>
     <use xlink:href="#DejaVuSans-67" x="331.050781"/>
     <use xlink:href="#DejaVuSans-2f" x="394.527344"/>
     <use xlink:href="#DejaVuSans-76" x="428.21875"/>
     <use xlink:href="#DejaVuSans-61" x="487.398438"/>
     <use xlink:href="#DejaVuSans-6c" x="548.677734"/>
     <use xlink:href="#DejaVuSans-69" x="576.460938"/>
     <use xlink:href="#DejaVuSans-64" x="604.244141"/>
     <use xlink:href="#DejaVuSans-61" x="667.720703"/>
     <use xlink:href="#DejaVuSans-74" x="729"/>
     <use xlink:href="#DejaVuSans-69" x="768.208984"/>
     <use xlink:href="#DejaVuSans-6f" x="795.992188"/>
     <use xlink:href="#DejaVuSans-6e" x="857.173828"/>
     <use xlink:href="#DejaVuSans-20" x="920.552734"/>
     <use xlink:href="#DejaVuSans-6c" x="952.339844"/>
     <use xlink:href="#DejaVuSans-6f" x="980.123047"/>
     <use xlink:href="#DejaVuSans-73" x="1041.304688"/>
     <use xlink:href="#DejaVuSans-73" x="1093.404297"/>
    </g>
   </g>
   <g id="legend_1">
    <g id="patch_7">
     <path d="M 537.271875 89.19625 
L 641 89.19625 
Q 643 89.19625 643 87.19625 
L 643 58.84 
Q 643 56.84 641 56.84 
L 537.271875 56.84 
Q 535.271875 56.84 535.271875 58.84 
L 535.271875 87.19625 
Q 535.271875 89.19625 537.271875 89.19625 
z
" style="fill: #ffffff; opacity: 0.8; stroke: #cccccc; stroke-linejoin: miter"/>
    </g>
    <g id="line2d_25">
     <path d="M 539.271875 64.938437 
L 549.271875 64.938437 
L 559.271875 64.938437 
" style="fill: none; stroke: #1f77b4; stroke-width: 1.5; stroke-linecap: square"/>
    </g>
    <g id="text_15">
     <!-- training loss -->
     <g transform="translate(567.271875 68.438437) scale(0.1 -0.1)">
      <use xlink:href="#DejaVuSans-74"/>
      <use xlink:href="#DejaVuSans-72" x="39.208984"/>
      <use xlink:href="#DejaVuSans-61" x="80.322266"/>
      <use xlink:href="#DejaVuSans-69" x="141.601562"/>
      <use xlink:href="#DejaVuSans-6e" x="169.384766"/>
      <use xlink:href="#DejaVuSans-69" x="232.763672"/>
      <use xlink:href="#DejaVuSans-6e" x="260.546875"/>
      <use xlink:href="#DejaVuSans-67" x="323.925781"/>
      <use xlink:href="#DejaVuSans-20" x="387.402344"/>
      <use xlink:href="#DejaVuSans-6c" x="419.189453"/>
      <use xlink:href="#DejaVuSans-6f" x="446.972656"/>
      <use xlink:href="#DejaVuSans-73" x="508.154297"/>
      <use xlink:href="#DejaVuSans-73" x="560.253906"/>
     </g>
    </g>
    <g id="line2d_26">
     <path d="M 539.271875 79.616562 
L 549.271875 79.616562 
L 559.271875 79.616562 
" style="fill: none; stroke: #ff7f0e; stroke-width: 1.5; stroke-linecap: square"/>
    </g>
    <g id="text_16">
     <!-- validation loss -->
     <g transform="translate(567.271875 83.116562) scale(0.1 -0.1)">
      <use xlink:href="#DejaVuSans-76"/>
      <use xlink:href="#DejaVuSans-61" x="59.179688"/>
      <use xlink:href="#DejaVuSans-6c" x="120.458984"/>
      <use xlink:href="#DejaVuSans-69" x="148.242188"/>
      <use xlink:href="#DejaVuSans-64" x="176.025391"/>
      <use xlink:href="#DejaVuSans-61" x="239.501953"/>
      <use xlink:href="#DejaVuSans-74" x="300.78125"/>
      <use xlink:href="#DejaVuSans-69" x="339.990234"/>
      <use xlink:href="#DejaVuSans-6f" x="367.773438"/>
      <use xlink:href="#DejaVuSans-6e" x="428.955078"/>
      <use xlink:href="#DejaVuSans-20" x="492.333984"/>
      <use xlink:href="#DejaVuSans-6c" x="524.121094"/>
      <use xlink:href="#DejaVuSans-6f" x="551.904297"/>
      <use xlink:href="#DejaVuSans-73" x="613.085938"/>
      <use xlink:href="#DejaVuSans-73" x="665.185547"/>
     </g>
    </g>
   </g>
  </g>
 </g>
 <defs>
  <clipPath id="p3a1634eb2b">
   <rect x="90" y="51.84" width="558" height="332.64"/>
  </clipPath>
 </defs>
</svg>
