<?xml version="1.0" encoding="utf-8" standalone="no"?>
<!DOCTYPE svg PUBLIC "-//W3C//DTD SVG 1.1//EN"
  "http://www.w3.org/Graphics/SVG/1.1/DTD/svg11.dtd">
<svg xmlns:xlink="http://www.w3.org/1999/xlink" width="720pt" height="432pt" viewBox="0 0 720 432" xmlns="http://www.w3.org/2000/svg" version="1.1">
 <metadata>
  <rdf:RDF xmlns:dc="http://purl.org/dc/elements/1.1/" xmlns:cc="http://creativecommons.org/ns#" xmlns:rdf="http://www.w3.org/1999/02/22-rdf-syntax-ns#">
   <cc:Work>
    <dc:type rdf:resource="http://purl.org/dc/dcmitype/StillImage"/>
    <dc:date>2024-08-03T14:48:53.012959</dc:date>
    <dc:format>image/svg+xml</dc:format>
    <dc:creator>
     <cc:Agent>
      <dc:title>Matplotlib v3.8.3, https://matplotlib.org/</dc:title>
     </cc:Agent>
    </dc:creator>
   </cc:Work>
  </rdf:RDF>
 </metadata>
 <defs>
  <style type="text/css">*{stroke-linejoin: round; stroke-linecap: butt}</style>
 </defs>
 <g id="figure_1">
  <g id="patch_1">
   <path d="M 0 432 
L 720 432 
L 720 0 
L 0 0 
z
" style="fill: #ffffff"/>
  </g>
  <g id="axes_1">
   <g id="patch_2">
    <path d="M 90 384.48 
L 648 384.48 
L 648 51.84 
L 90 51.84 
z
" style="fill: #ffffff"/>
   </g>
   <g id="matplotlib.axis_1">
    <g id="xtick_1">
     <g id="line2d_1">
      <path d="M 115.363636 384.48 
L 115.363636 51.84 
" clip-path="url(#p3a6145aee7)" style="fill: none; stroke: #b0b0b0; stroke-width: 0.8; stroke-linecap: square"/>
     </g>
     <g id="line2d_2">
      <defs>
       <path id="meae04fa7a1" d="M 0 0 
L 0 3.5 
" style="stroke: #000000; stroke-width: 0.8"/>
      </defs>
      <g>
       <use xlink:href="#meae04fa7a1" x="115.363636" y="384.48" style="stroke: #000000; stroke-width: 0.8"/>
      </g>
     </g>
     <g id="text_1">
      <!-- 0 -->
      <g transform="translate(112.182386 399.078438) scale(0.1 -0.1)">
       <defs>
        <path id="DejaVuSans-30" d="M 2034 4250 
Q 1547 4250 1301 3770 
Q 1056 3291 1056 2328 
Q 1056 1369 1301 889 
Q 1547 409 2034 409 
Q 2525 409 2770 889 
Q 3016 1369 3016 2328 
Q 3016 3291 2770 3770 
Q 2525 4250 2034 4250 
z
M 2034 4750 
Q 2819 4750 3233 4129 
Q 3647 3509 3647 2328 
Q 3647 1150 3233 529 
Q 2819 -91 2034 -91 
Q 1250 -91 836 529 
Q 422 1150 422 2328 
Q 422 3509 836 4129 
Q 1250 4750 2034 4750 
z
" transform="scale(0.015625)"/>
       </defs>
       <use xlink:href="#DejaVuSans-30"/>
      </g>
     </g>
    </g>
    <g id="xtick_2">
     <g id="line2d_3">
      <path d="M 216.917705 384.48 
L 216.917705 51.84 
" clip-path="url(#p3a6145aee7)" style="fill: none; stroke: #b0b0b0; stroke-width: 0.8; stroke-linecap: square"/>
     </g>
     <g id="line2d_4">
      <g>
       <use xlink:href="#meae04fa7a1" x="216.917705" y="384.48" style="stroke: #000000; stroke-width: 0.8"/>
      </g>
     </g>
     <g id="text_2">
      <!-- 10000 -->
      <g transform="translate(201.011455 399.078438) scale(0.1 -0.1)">
       <defs>
        <path id="DejaVuSans-31" d="M 794 531 
L 1825 531 
L 1825 4091 
L 703 3866 
L 703 4441 
L 1819 4666 
L 2450 4666 
L 2450 531 
L 3481 531 
L 3481 0 
L 794 0 
L 794 531 
z
" transform="scale(0.015625)"/>
       </defs>
       <use xlink:href="#DejaVuSans-31"/>
       <use xlink:href="#DejaVuSans-30" x="63.623047"/>
       <use xlink:href="#DejaVuSans-30" x="127.246094"/>
       <use xlink:href="#DejaVuSans-30" x="190.869141"/>
       <use xlink:href="#DejaVuSans-30" x="254.492188"/>
      </g>
     </g>
    </g>
    <g id="xtick_3">
     <g id="line2d_5">
      <path d="M 318.471773 384.48 
L 318.471773 51.84 
" clip-path="url(#p3a6145aee7)" style="fill: none; stroke: #b0b0b0; stroke-width: 0.8; stroke-linecap: square"/>
     </g>
     <g id="line2d_6">
      <g>
       <use xlink:href="#meae04fa7a1" x="318.471773" y="384.48" style="stroke: #000000; stroke-width: 0.8"/>
      </g>
     </g>
     <g id="text_3">
      <!-- 20000 -->
      <g transform="translate(302.565523 399.078438) scale(0.1 -0.1)">
       <defs>
        <path id="DejaVuSans-32" d="M 1228 531 
L 3431 531 
L 3431 0 
L 469 0 
L 469 531 
Q 828 903 1448 1529 
Q 2069 2156 2228 2338 
Q 2531 2678 2651 2914 
Q 2772 3150 2772 3378 
Q 2772 3750 2511 3984 
Q 2250 4219 1831 4219 
Q 1534 4219 1204 4116 
Q 875 4013 500 3803 
L 500 4441 
Q 881 4594 1212 4672 
Q 1544 4750 1819 4750 
Q 2544 4750 2975 4387 
Q 3406 4025 3406 3419 
Q 3406 3131 3298 2873 
Q 3191 2616 2906 2266 
Q 2828 2175 2409 1742 
Q 1991 1309 1228 531 
z
" transform="scale(0.015625)"/>
       </defs>
       <use xlink:href="#DejaVuSans-32"/>
       <use xlink:href="#DejaVuSans-30" x="63.623047"/>
       <use xlink:href="#DejaVuSans-30" x="127.246094"/>
       <use xlink:href="#DejaVuSans-30" x="190.869141"/>
       <use xlink:href="#DejaVuSans-30" x="254.492188"/>
      </g>
     </g>
    </g>
    <g id="xtick_4">
     <g id="line2d_7">
      <path d="M 420.025842 384.48 
L 420.025842 51.84 
" clip-path="url(#p3a6145aee7)" style="fill: none; stroke: #b0b0b0; stroke-width: 0.8; stroke-linecap: square"/>
     </g>
     <g id="line2d_8">
      <g>
       <use xlink:href="#meae04fa7a1" x="420.025842" y="384.48" style="stroke: #000000; stroke-width: 0.8"/>
      </g>
     </g>
     <g id="text_4">
      <!-- 30000 -->
      <g transform="translate(404.119592 399.078438) scale(0.1 -0.1)">
       <defs>
        <path id="DejaVuSans-33" d="M 2597 2516 
Q 3050 2419 3304 2112 
Q 3559 1806 3559 1356 
Q 3559 666 3084 287 
Q 2609 -91 1734 -91 
Q 1441 -91 1130 -33 
Q 819 25 488 141 
L 488 750 
Q 750 597 1062 519 
Q 1375 441 1716 441 
Q 2309 441 2620 675 
Q 2931 909 2931 1356 
Q 2931 1769 2642 2001 
Q 2353 2234 1838 2234 
L 1294 2234 
L 1294 2753 
L 1863 2753 
Q 2328 2753 2575 2939 
Q 2822 3125 2822 3475 
Q 2822 3834 2567 4026 
Q 2313 4219 1838 4219 
Q 1578 4219 1281 4162 
Q 984 4106 628 3988 
L 628 4550 
Q 988 4650 1302 4700 
Q 1616 4750 1894 4750 
Q 2613 4750 3031 4423 
Q 3450 4097 3450 3541 
Q 3450 3153 3228 2886 
Q 3006 2619 2597 2516 
z
" transform="scale(0.015625)"/>
       </defs>
       <use xlink:href="#DejaVuSans-33"/>
       <use xlink:href="#DejaVuSans-30" x="63.623047"/>
       <use xlink:href="#DejaVuSans-30" x="127.246094"/>
       <use xlink:href="#DejaVuSans-30" x="190.869141"/>
       <use xlink:href="#DejaVuSans-30" x="254.492188"/>
      </g>
     </g>
    </g>
    <g id="xtick_5">
     <g id="line2d_9">
      <path d="M 521.57991 384.48 
L 521.57991 51.84 
" clip-path="url(#p3a6145aee7)" style="fill: none; stroke: #b0b0b0; stroke-width: 0.8; stroke-linecap: square"/>
     </g>
     <g id="line2d_10">
      <g>
       <use xlink:href="#meae04fa7a1" x="521.57991" y="384.48" style="stroke: #000000; stroke-width: 0.8"/>
      </g>
     </g>
     <g id="text_5">
      <!-- 40000 -->
      <g transform="translate(505.67366 399.078438) scale(0.1 -0.1)">
       <defs>
        <path id="DejaVuSans-34" d="M 2419 4116 
L 825 1625 
L 2419 1625 
L 2419 4116 
z
M 2253 4666 
L 3047 4666 
L 3047 1625 
L 3713 1625 
L 3713 1100 
L 3047 1100 
L 3047 0 
L 2419 0 
L 2419 1100 
L 313 1100 
L 313 1709 
L 2253 4666 
z
" transform="scale(0.015625)"/>
       </defs>
       <use xlink:href="#DejaVuSans-34"/>
       <use xlink:href="#DejaVuSans-30" x="63.623047"/>
       <use xlink:href="#DejaVuSans-30" x="127.246094"/>
       <use xlink:href="#DejaVuSans-30" x="190.869141"/>
       <use xlink:href="#DejaVuSans-30" x="254.492188"/>
      </g>
     </g>
    </g>
    <g id="xtick_6">
     <g id="line2d_11">
      <path d="M 623.133979 384.48 
L 623.133979 51.84 
" clip-path="url(#p3a6145aee7)" style="fill: none; stroke: #b0b0b0; stroke-width: 0.8; stroke-linecap: square"/>
     </g>
     <g id="line2d_12">
      <g>
       <use xlink:href="#meae04fa7a1" x="623.133979" y="384.48" style="stroke: #000000; stroke-width: 0.8"/>
      </g>
     </g>
     <g id="text_6">
      <!-- 50000 -->
      <g transform="translate(607.227729 399.078438) scale(0.1 -0.1)">
       <defs>
        <path id="DejaVuSans-35" d="M 691 4666 
L 3169 4666 
L 3169 4134 
L 1269 4134 
L 1269 2991 
Q 1406 3038 1543 3061 
Q 1681 3084 1819 3084 
Q 2600 3084 3056 2656 
Q 3513 2228 3513 1497 
Q 3513 744 3044 326 
Q 2575 -91 1722 -91 
Q 1428 -91 1123 -41 
Q 819 9 494 109 
L 494 744 
Q 775 591 1075 516 
Q 1375 441 1709 441 
Q 2250 441 2565 725 
Q 2881 1009 2881 1497 
Q 2881 1984 2565 2268 
Q 2250 2553 1709 2553 
Q 1456 2553 1204 2497 
Q 953 2441 691 2322 
L 691 4666 
z
" transform="scale(0.015625)"/>
       </defs>
       <use xlink:href="#DejaVuSans-35"/>
       <use xlink:href="#DejaVuSans-30" x="63.623047"/>
       <use xlink:href="#DejaVuSans-30" x="127.246094"/>
       <use xlink:href="#DejaVuSans-30" x="190.869141"/>
       <use xlink:href="#DejaVuSans-30" x="254.492188"/>
      </g>
     </g>
    </g>
    <g id="text_7">
     <!-- Epochs -->
     <g transform="translate(351.084375 412.756563) scale(0.1 -0.1)">
      <defs>
       <path id="DejaVuSans-45" d="M 628 4666 
L 3578 4666 
L 3578 4134 
L 1259 4134 
L 1259 2753 
L 3481 2753 
L 3481 2222 
L 1259 2222 
L 1259 531 
L 3634 531 
L 3634 0 
L 628 0 
L 628 4666 
z
" transform="scale(0.015625)"/>
       <path id="DejaVuSans-70" d="M 1159 525 
L 1159 -1331 
L 581 -1331 
L 581 3500 
L 1159 3500 
L 1159 2969 
Q 1341 3281 1617 3432 
Q 1894 3584 2278 3584 
Q 2916 3584 3314 3078 
Q 3713 2572 3713 1747 
Q 3713 922 3314 415 
Q 2916 -91 2278 -91 
Q 1894 -91 1617 61 
Q 1341 213 1159 525 
z
M 3116 1747 
Q 3116 2381 2855 2742 
Q 2594 3103 2138 3103 
Q 1681 3103 1420 2742 
Q 1159 2381 1159 1747 
Q 1159 1113 1420 752 
Q 1681 391 2138 391 
Q 2594 391 2855 752 
Q 3116 1113 3116 1747 
z
" transform="scale(0.015625)"/>
       <path id="DejaVuSans-6f" d="M 1959 3097 
Q 1497 3097 1228 2736 
Q 959 2375 959 1747 
Q 959 1119 1226 758 
Q 1494 397 1959 397 
Q 2419 397 2687 759 
Q 2956 1122 2956 1747 
Q 2956 2369 2687 2733 
Q 2419 3097 1959 3097 
z
M 1959 3584 
Q 2709 3584 3137 3096 
Q 3566 2609 3566 1747 
Q 3566 888 3137 398 
Q 2709 -91 1959 -91 
Q 1206 -91 779 398 
Q 353 888 353 1747 
Q 353 2609 779 3096 
Q 1206 3584 1959 3584 
z
" transform="scale(0.015625)"/>
       <path id="DejaVuSans-63" d="M 3122 3366 
L 3122 2828 
Q 2878 2963 2633 3030 
Q 2388 3097 2138 3097 
Q 1578 3097 1268 2742 
Q 959 2388 959 1747 
Q 959 1106 1268 751 
Q 1578 397 2138 397 
Q 2388 397 2633 464 
Q 2878 531 3122 666 
L 3122 134 
Q 2881 22 2623 -34 
Q 2366 -91 2075 -91 
Q 1284 -91 818 406 
Q 353 903 353 1747 
Q 353 2603 823 3093 
Q 1294 3584 2113 3584 
Q 2378 3584 2631 3529 
Q 2884 3475 3122 3366 
z
" transform="scale(0.015625)"/>
       <path id="DejaVuSans-68" d="M 3513 2113 
L 3513 0 
L 2938 0 
L 2938 2094 
Q 2938 2591 2744 2837 
Q 2550 3084 2163 3084 
Q 1697 3084 1428 2787 
Q 1159 2491 1159 1978 
L 1159 0 
L 581 0 
L 581 4863 
L 1159 4863 
L 1159 2956 
Q 1366 3272 1645 3428 
Q 1925 3584 2291 3584 
Q 2894 3584 3203 3211 
Q 3513 2838 3513 2113 
z
" transform="scale(0.015625)"/>
       <path id="DejaVuSans-73" d="M 2834 3397 
L 2834 2853 
Q 2591 2978 2328 3040 
Q 2066 3103 1784 3103 
Q 1356 3103 1142 2972 
Q 928 2841 928 2578 
Q 928 2378 1081 2264 
Q 1234 2150 1697 2047 
L 1894 2003 
Q 2506 1872 2764 1633 
Q 3022 1394 3022 966 
Q 3022 478 2636 193 
Q 2250 -91 1575 -91 
Q 1294 -91 989 -36 
Q 684 19 347 128 
L 347 722 
Q 666 556 975 473 
Q 1284 391 1588 391 
Q 1994 391 2212 530 
Q 2431 669 2431 922 
Q 2431 1156 2273 1281 
Q 2116 1406 1581 1522 
L 1381 1569 
Q 847 1681 609 1914 
Q 372 2147 372 2553 
Q 372 3047 722 3315 
Q 1072 3584 1716 3584 
Q 2034 3584 2315 3537 
Q 2597 3491 2834 3397 
z
" transform="scale(0.015625)"/>
      </defs>
      <use xlink:href="#DejaVuSans-45"/>
      <use xlink:href="#DejaVuSans-70" x="63.183594"/>
      <use xlink:href="#DejaVuSans-6f" x="126.660156"/>
      <use xlink:href="#DejaVuSans-63" x="187.841797"/>
      <use xlink:href="#DejaVuSans-68" x="242.822266"/>
      <use xlink:href="#DejaVuSans-73" x="306.201172"/>
     </g>
    </g>
   </g>
   <g id="matplotlib.axis_2">
    <g id="ytick_1">
     <g id="line2d_13">
      <path d="M 90 369.431699 
L 648 369.431699 
" clip-path="url(#p3a6145aee7)" style="fill: none; stroke: #b0b0b0; stroke-width: 0.8; stroke-linecap: square"/>
     </g>
     <g id="line2d_14">
      <defs>
       <path id="mca45ebd8ee" d="M 0 0 
L -3.5 0 
" style="stroke: #000000; stroke-width: 0.8"/>
      </defs>
      <g>
       <use xlink:href="#mca45ebd8ee" x="90" y="369.431699" style="stroke: #000000; stroke-width: 0.8"/>
      </g>
     </g>
     <g id="text_8">
      <!-- 0.0 -->
      <g transform="translate(67.096875 373.230917) scale(0.1 -0.1)">
       <defs>
        <path id="DejaVuSans-2e" d="M 684 794 
L 1344 794 
L 1344 0 
L 684 0 
L 684 794 
z
" transform="scale(0.015625)"/>
       </defs>
       <use xlink:href="#DejaVuSans-30"/>
       <use xlink:href="#DejaVuSans-2e" x="63.623047"/>
       <use xlink:href="#DejaVuSans-30" x="95.410156"/>
      </g>
     </g>
    </g>
    <g id="ytick_2">
     <g id="line2d_15">
      <path d="M 90 305.647663 
L 648 305.647663 
" clip-path="url(#p3a6145aee7)" style="fill: none; stroke: #b0b0b0; stroke-width: 0.8; stroke-linecap: square"/>
     </g>
     <g id="line2d_16">
      <g>
       <use xlink:href="#mca45ebd8ee" x="90" y="305.647663" style="stroke: #000000; stroke-width: 0.8"/>
      </g>
     </g>
     <g id="text_9">
      <!-- 0.2 -->
      <g transform="translate(67.096875 309.446881) scale(0.1 -0.1)">
       <use xlink:href="#DejaVuSans-30"/>
       <use xlink:href="#DejaVuSans-2e" x="63.623047"/>
       <use xlink:href="#DejaVuSans-32" x="95.410156"/>
      </g>
     </g>
    </g>
    <g id="ytick_3">
     <g id="line2d_17">
      <path d="M 90 241.863627 
L 648 241.863627 
" clip-path="url(#p3a6145aee7)" style="fill: none; stroke: #b0b0b0; stroke-width: 0.8; stroke-linecap: square"/>
     </g>
     <g id="line2d_18">
      <g>
       <use xlink:href="#mca45ebd8ee" x="90" y="241.863627" style="stroke: #000000; stroke-width: 0.8"/>
      </g>
     </g>
     <g id="text_10">
      <!-- 0.4 -->
      <g transform="translate(67.096875 245.662845) scale(0.1 -0.1)">
       <use xlink:href="#DejaVuSans-30"/>
       <use xlink:href="#DejaVuSans-2e" x="63.623047"/>
       <use xlink:href="#DejaVuSans-34" x="95.410156"/>
      </g>
     </g>
    </g>
    <g id="ytick_4">
     <g id="line2d_19">
      <path d="M 90 178.079591 
L 648 178.079591 
" clip-path="url(#p3a6145aee7)" style="fill: none; stroke: #b0b0b0; stroke-width: 0.8; stroke-linecap: square"/>
     </g>
     <g id="line2d_20">
      <g>
       <use xlink:href="#mca45ebd8ee" x="90" y="178.079591" style="stroke: #000000; stroke-width: 0.8"/>
      </g>
     </g>
     <g id="text_11">
      <!-- 0.6 -->
      <g transform="translate(67.096875 181.87881) scale(0.1 -0.1)">
       <defs>
        <path id="DejaVuSans-36" d="M 2113 2584 
Q 1688 2584 1439 2293 
Q 1191 2003 1191 1497 
Q 1191 994 1439 701 
Q 1688 409 2113 409 
Q 2538 409 2786 701 
Q 3034 994 3034 1497 
Q 3034 2003 2786 2293 
Q 2538 2584 2113 2584 
z
M 3366 4563 
L 3366 3988 
Q 3128 4100 2886 4159 
Q 2644 4219 2406 4219 
Q 1781 4219 1451 3797 
Q 1122 3375 1075 2522 
Q 1259 2794 1537 2939 
Q 1816 3084 2150 3084 
Q 2853 3084 3261 2657 
Q 3669 2231 3669 1497 
Q 3669 778 3244 343 
Q 2819 -91 2113 -91 
Q 1303 -91 875 529 
Q 447 1150 447 2328 
Q 447 3434 972 4092 
Q 1497 4750 2381 4750 
Q 2619 4750 2861 4703 
Q 3103 4656 3366 4563 
z
" transform="scale(0.015625)"/>
       </defs>
       <use xlink:href="#DejaVuSans-30"/>
       <use xlink:href="#DejaVuSans-2e" x="63.623047"/>
       <use xlink:href="#DejaVuSans-36" x="95.410156"/>
      </g>
     </g>
    </g>
    <g id="ytick_5">
     <g id="line2d_21">
      <path d="M 90 114.295555 
L 648 114.295555 
" clip-path="url(#p3a6145aee7)" style="fill: none; stroke: #b0b0b0; stroke-width: 0.8; stroke-linecap: square"/>
     </g>
     <g id="line2d_22">
      <g>
       <use xlink:href="#mca45ebd8ee" x="90" y="114.295555" style="stroke: #000000; stroke-width: 0.8"/>
      </g>
     </g>
     <g id="text_12">
      <!-- 0.8 -->
      <g transform="translate(67.096875 118.094774) scale(0.1 -0.1)">
       <defs>
        <path id="DejaVuSans-38" d="M 2034 2216 
Q 1584 2216 1326 1975 
Q 1069 1734 1069 1313 
Q 1069 891 1326 650 
Q 1584 409 2034 409 
Q 2484 409 2743 651 
Q 3003 894 3003 1313 
Q 3003 1734 2745 1975 
Q 2488 2216 2034 2216 
z
M 1403 2484 
Q 997 2584 770 2862 
Q 544 3141 544 3541 
Q 544 4100 942 4425 
Q 1341 4750 2034 4750 
Q 2731 4750 3128 4425 
Q 3525 4100 3525 3541 
Q 3525 3141 3298 2862 
Q 3072 2584 2669 2484 
Q 3125 2378 3379 2068 
Q 3634 1759 3634 1313 
Q 3634 634 3220 271 
Q 2806 -91 2034 -91 
Q 1263 -91 848 271 
Q 434 634 434 1313 
Q 434 1759 690 2068 
Q 947 2378 1403 2484 
z
M 1172 3481 
Q 1172 3119 1398 2916 
Q 1625 2713 2034 2713 
Q 2441 2713 2670 2916 
Q 2900 3119 2900 3481 
Q 2900 3844 2670 4047 
Q 2441 4250 2034 4250 
Q 1625 4250 1398 4047 
Q 1172 3844 1172 3481 
z
" transform="scale(0.015625)"/>
       </defs>
       <use xlink:href="#DejaVuSans-30"/>
       <use xlink:href="#DejaVuSans-2e" x="63.623047"/>
       <use xlink:href="#DejaVuSans-38" x="95.410156"/>
      </g>
     </g>
    </g>
    <g id="text_13">
     <!-- Loss -->
     <g transform="translate(61.017187 229.127187) rotate(-90) scale(0.1 -0.1)">
      <defs>
       <path id="DejaVuSans-4c" d="M 628 4666 
L 1259 4666 
L 1259 531 
L 3531 531 
L 3531 0 
L 628 0 
L 628 4666 
z
" transform="scale(0.015625)"/>
      </defs>
      <use xlink:href="#DejaVuSans-4c"/>
      <use xlink:href="#DejaVuSans-6f" x="53.962891"/>
      <use xlink:href="#DejaVuSans-73" x="115.144531"/>
      <use xlink:href="#DejaVuSans-73" x="167.244141"/>
     </g>
    </g>
   </g>
   <g id="line2d_23">
    <path d="M 115.363636 84.949018 
L 115.394103 85.219727 
L 115.424569 99.232227 
L 115.485501 66.96 
L 115.70892 310.997822 
L 116.115136 338.221815 
L 116.409643 342.163528 
L 116.450265 342.427114 
L 116.693995 344.545588 
L 117.150988 347.132694 
L 117.45565 347.83855 
L 117.465806 347.792736 
L 117.526738 347.996143 
L 117.719691 348.414807 
L 118.166529 349.146067 
L 119.354711 350.276592 
L 119.781238 350.604625 
L 120.553049 351.27341 
L 120.644448 351.3288 
L 120.695225 351.236384 
L 121.172529 351.834019 
L 122.208381 353.139209 
L 122.218536 352.959118 
L 122.309935 353.289754 
L 122.594286 353.576966 
L 122.604441 353.404088 
L 122.69584 353.7048 
L 122.726306 353.643027 
L 122.970036 353.971761 
L 123.295009 354.311232 
L 123.305165 354.135055 
L 123.396563 354.441795 
L 123.518428 354.624999 
L 123.752002 354.957162 
L 124.046509 355.345609 
L 124.280084 355.60884 
L 124.371482 355.697579 
L 124.381638 353.297176 
L 124.473036 355.857131 
L 125.112827 356.531388 
L 125.122982 356.253053 
L 125.214381 356.579181 
L 125.711996 356.987509 
L 125.722151 355.263295 
L 125.81355 357.014203 
L 126.087746 357.172289 
L 126.097901 357.14292 
L 126.179145 357.236933 
L 126.69707 357.535611 
L 126.707226 357.375375 
L 126.798624 357.571761 
L 128.636753 358.298789 
L 128.646909 357.307518 
L 128.738307 358.395457 
L 129.367942 358.712329 
L 129.378098 358.688604 
L 129.469496 358.751063 
L 129.581206 358.781578 
L 129.642138 358.800952 
L 129.652294 358.645257 
L 129.743692 358.843673 
L 129.824936 358.905282 
L 129.835091 358.619308 
L 129.92649 358.947026 
L 130.474882 359.175929 
L 130.485037 358.858362 
L 130.576436 359.241508 
L 130.637368 359.259486 
L 130.647524 359.069402 
L 130.728767 359.275898 
L 130.738922 359.185234 
L 130.860787 359.336882 
L 130.931875 359.361494 
L 130.94203 358.226528 
L 131.033429 359.396853 
L 131.470112 359.535562 
L 131.480267 359.127942 
L 131.571666 359.567315 
L 131.612287 359.602435 
L 131.622443 359.226492 
L 131.713841 359.64959 
L 131.896639 359.707495 
L 131.906794 359.151676 
L 131.998193 359.766575 
L 132.363787 359.846099 
L 132.373943 359.697203 
L 132.465341 359.859188 
L 132.587206 359.895624 
L 132.597362 359.564618 
L 132.68876 359.907093 
L 132.770004 359.936382 
L 132.780159 359.758616 
L 132.871558 359.978389 
L 134.090207 360.344765 
L 134.100362 359.908282 
L 134.191761 360.361876 
L 135.613518 360.778885 
L 135.623673 360.519389 
L 135.715072 360.796264 
L 135.755693 360.809007 
L 135.765849 359.045803 
L 135.847092 360.821708 
L 135.857247 360.80681 
L 136.009578 360.843828 
L 136.019734 360.711247 
L 136.111133 360.860945 
L 137.258694 361.007581 
L 137.268849 360.518564 
L 137.360248 361.027684 
L 137.471957 360.90523 
L 137.53289 361.040714 
L 138.406254 361.164313 
L 138.41641 360.681948 
L 138.507809 361.174616 
L 138.517964 361.177085 
L 138.528119 360.839266 
L 138.619518 361.191665 
L 138.731228 361.232442 
L 138.741383 361.039403 
L 138.832782 361.246825 
L 138.954646 361.267517 
L 138.964802 361.124463 
L 139.005423 361.283179 
L 139.056201 361.285937 
L 139.777234 361.392144 
L 139.78739 361.328235 
L 139.878788 361.395893 
L 140.29516 361.459215 
L 140.305316 361.237507 
L 140.396714 361.477664 
L 140.498268 361.497392 
L 140.508424 361.284956 
L 140.569356 361.503746 
L 140.599822 361.504825 
L 141.645829 361.619796 
L 141.655985 361.466008 
L 141.716917 361.628049 
L 141.747383 361.629424 
L 142.620748 361.711335 
L 142.630904 361.453461 
L 142.722302 361.720344 
L 142.935566 361.775794 
L 142.945721 361.474227 
L 143.03712 361.789241 
L 144.03235 361.90152 
L 144.042505 361.357307 
L 144.133904 361.913642 
L 144.326857 361.934119 
L 144.905715 361.990521 
L 144.91587 361.678072 
L 145.007269 361.995886 
L 146.479803 362.079547 
L 146.489958 361.9753 
L 146.581357 362.087382 
L 147.302391 362.128275 
L 147.312546 361.859476 
L 147.403945 362.133015 
L 149.597513 362.299 
L 149.607668 362.013258 
L 149.699067 362.304517 
L 149.749844 362.310262 
L 149.759999 361.917152 
L 149.841243 362.317322 
L 149.851398 362.297136 
L 149.871709 362.320451 
L 149.881864 361.313462 
L 149.963107 362.332317 
L 149.973263 362.330793 
L 150.227148 362.356908 
L 150.237303 362.025138 
L 150.328702 362.366328 
L 151.01927 362.407353 
L 151.029425 361.508915 
L 151.120824 362.416234 
L 151.232533 362.425849 
L 151.242689 362.247506 
L 151.293466 362.430626 
L 151.334087 362.432451 
L 151.364554 362.433478 
L 151.415331 362.296861 
L 151.466108 362.437679 
L 151.872324 362.46206 
L 151.882479 362.272438 
L 151.973878 362.468582 
L 151.984033 362.370535 
L 152.105898 362.478164 
L 152.298851 362.49569 
L 152.309006 352.602471 
L 152.39025 362.50038 
L 152.400405 362.457277 
L 152.52227 362.505634 
L 156.300081 362.748764 
L 156.310237 362.635321 
L 156.401635 362.752137 
L 157.214068 362.793202 
L 157.224223 362.629531 
L 157.25469 362.796021 
L 157.315622 362.799049 
L 157.76246 362.824892 
L 157.772615 362.522089 
L 157.864014 362.827473 
L 158.544426 362.868304 
L 158.554582 362.640786 
L 158.635825 362.874303 
L 158.64598 362.874283 
L 158.991264 362.890056 
L 159.00142 362.734163 
L 159.092818 362.895421 
L 159.580278 362.929153 
L 159.590433 362.117829 
L 159.681832 362.937488 
L 160.169291 362.976868 
L 160.291156 362.88493 
L 160.413021 362.993734 
L 161.398096 363.070802 
L 161.408251 362.914243 
L 161.469183 363.075479 
L 161.49965 363.076423 
L 161.743379 363.095339 
L 161.753535 362.976887 
L 161.824623 363.103522 
L 161.844933 363.105099 
L 161.956643 363.115399 
L 161.966798 362.930932 
L 162.058197 363.118664 
L 162.220684 363.137267 
L 162.230839 332.516769 
L 162.322238 363.141243 
L 162.342548 363.142336 
L 162.352704 363.001564 
L 162.444102 363.146426 
L 163.743995 363.245632 
L 163.75415 363.029364 
L 163.845549 363.255588 
L 164.414251 363.291603 
L 164.50565 363.073211 
L 164.525961 363.299862 
L 165.856319 363.387991 
L 165.988339 363.391706 
L 168.212374 363.540229 
L 168.222529 363.285707 
L 168.313928 363.552337 
L 168.88263 363.583104 
L 168.892786 363.527507 
L 168.99434 363.587844 
L 169.146671 363.595118 
L 169.156826 363.47723 
L 169.248225 363.599696 
L 170.101279 363.644152 
L 171.076198 363.688421 
L 171.086354 363.532829 
L 171.177752 363.691887 
L 171.705834 363.724068 
L 171.715989 361.807694 
L 171.807388 363.732324 
L 172.975259 363.808194 
L 174.143131 363.880382 
L 174.153287 363.826458 
L 174.254841 363.884899 
L 175.219604 363.942401 
L 175.22976 363.775056 
L 175.260226 363.944867 
L 175.321158 363.947109 
L 176.996801 364.049087 
L 177.006956 363.960469 
L 177.098355 364.055872 
L 181.292538 364.298547 
L 181.302693 364.181555 
L 181.394092 364.303242 
L 182.267457 364.349839 
L 182.277612 364.280038 
L 182.379166 364.353175 
L 184.450869 364.462417 
L 184.461025 364.381387 
L 184.552423 364.470213 
L 185.395322 364.505272 
L 185.405477 364.323265 
L 185.496876 364.509347 
L 185.964025 364.534604 
L 185.97418 364.41021 
L 186.065579 364.539059 
L 187.010032 364.593982 
L 187.020187 364.354672 
L 187.111586 364.602164 
L 187.924018 364.659781 
L 187.934174 364.560152 
L 188.025572 364.666341 
L 188.188059 364.680359 
L 188.198214 364.356825 
L 188.259147 364.683598 
L 188.289613 364.684185 
L 190.269917 364.786219 
L 190.280073 364.30808 
L 190.371471 364.78862 
L 194.910938 365.026829 
L 196.149898 365.089232 
L 196.160053 364.945947 
L 196.251452 365.099699 
L 196.261607 365.008574 
L 196.383472 365.111501 
L 196.393628 365.080501 
L 196.495182 365.118774 
L 197.734141 365.19653 
L 197.744297 365.040458 
L 197.845851 365.179195 
L 197.967716 365.211078 
L 198.099736 365.21692 
L 201.379932 365.416526 
L 201.390088 365.212224 
L 201.481486 365.421241 
L 201.908013 365.295663 
L 201.918169 365.443523 
L 202.659514 365.49645 
L 202.669669 365.337127 
L 202.761068 365.50043 
L 203.868007 365.568036 
L 206.55919 365.703618 
L 209.169129 365.860358 
L 209.179285 365.790095 
L 209.270683 365.863826 
L 210.408089 365.906839 
L 210.418244 365.4936 
L 210.509643 365.913551 
L 211.494718 365.946759 
L 211.616582 365.991616 
L 211.728292 365.99762 
L 217.232522 366.281464 
L 217.242678 366.14547 
L 217.334076 366.284249 
L 217.852002 366.319013 
L 217.862158 366.157695 
L 217.953556 366.321823 
L 220.918935 366.467944 
L 220.929091 366.33104 
L 221.020489 366.473481 
L 223.610118 366.6175 
L 224.747523 366.67024 
L 224.757679 366.514803 
L 224.828767 366.676025 
L 224.849078 366.676263 
L 225.275605 366.701331 
L 225.28576 366.539167 
L 225.377159 366.706183 
L 226.16928 366.760424 
L 226.179436 366.600286 
L 226.270835 366.76806 
L 231.835997 367.094394 
L 231.846153 366.60963 
L 231.937552 367.100061 
L 237.64489 367.374868 
L 237.655046 367.262511 
L 237.746444 367.379379 
L 238.315147 367.192198 
L 238.426857 367.411561 
L 241.229749 367.525742 
L 241.239904 367.255531 
L 241.331303 367.529002 
L 249.25252 367.822695 
L 250.054797 367.858954 
L 250.105574 367.826053 
L 250.166507 367.862538 
L 262.34284 368.237167 
L 262.352995 367.871178 
L 262.444394 368.238822 
L 267.278367 368.343863 
L 267.288523 368.286753 
L 267.390077 368.345053 
L 283.730126 368.575769 
L 283.740282 368.186129 
L 283.831681 368.576776 
L 287.132188 368.615529 
L 287.142343 368.477247 
L 287.233742 368.615571 
L 289.488242 368.639715 
L 293.611337 368.684969 
L 308.671806 368.815795 
L 308.681961 368.777814 
L 308.783515 368.816402 
L 358.514542 369.077628 
L 358.524698 368.704147 
L 358.616097 369.077854 
L 460.495138 369.267704 
L 622.636364 369.36 
L 622.636364 369.36 
" clip-path="url(#p3a6145aee7)" style="fill: none; stroke: #1f77b4; stroke-width: 1.5; stroke-linecap: square"/>
   </g>
   <g id="patch_3">
    <path d="M 90 384.48 
L 90 51.84 
" style="fill: none; stroke: #000000; stroke-width: 0.8; stroke-linejoin: miter; stroke-linecap: square"/>
   </g>
   <g id="patch_4">
    <path d="M 648 384.48 
L 648 51.84 
" style="fill: none; stroke: #000000; stroke-width: 0.8; stroke-linejoin: miter; stroke-linecap: square"/>
   </g>
   <g id="patch_5">
    <path d="M 90 384.48 
L 648 384.48 
" style="fill: none; stroke: #000000; stroke-width: 0.8; stroke-linejoin: miter; stroke-linecap: square"/>
   </g>
   <g id="patch_6">
    <path d="M 90 51.84 
L 648 51.84 
" style="fill: none; stroke: #000000; stroke-width: 0.8; stroke-linejoin: miter; stroke-linecap: square"/>
   </g>
   <g id="text_14">
    <!-- Training loss -->
    <g transform="translate(331.832812 45.84) scale(0.12 -0.12)">
     <defs>
      <path id="DejaVuSans-54" d="M -19 4666 
L 3928 4666 
L 3928 4134 
L 2272 4134 
L 2272 0 
L 1638 0 
L 1638 4134 
L -19 4134 
L -19 4666 
z
" transform="scale(0.015625)"/>
      <path id="DejaVuSans-72" d="M 2631 2963 
Q 2534 3019 2420 3045 
Q 2306 3072 2169 3072 
Q 1681 3072 1420 2755 
Q 1159 2438 1159 1844 
L 1159 0 
L 581 0 
L 581 3500 
L 1159 3500 
L 1159 2956 
Q 1341 3275 1631 3429 
Q 1922 3584 2338 3584 
Q 2397 3584 2469 3576 
Q 2541 3569 2628 3553 
L 2631 2963 
z
" transform="scale(0.015625)"/>
      <path id="DejaVuSans-61" d="M 2194 1759 
Q 1497 1759 1228 1600 
Q 959 1441 959 1056 
Q 959 750 1161 570 
Q 1363 391 1709 391 
Q 2188 391 2477 730 
Q 2766 1069 2766 1631 
L 2766 1759 
L 2194 1759 
z
M 3341 1997 
L 3341 0 
L 2766 0 
L 2766 531 
Q 2569 213 2275 61 
Q 1981 -91 1556 -91 
Q 1019 -91 701 211 
Q 384 513 384 1019 
Q 384 1609 779 1909 
Q 1175 2209 1959 2209 
L 2766 2209 
L 2766 2266 
Q 2766 2663 2505 2880 
Q 2244 3097 1772 3097 
Q 1472 3097 1187 3025 
Q 903 2953 641 2809 
L 641 3341 
Q 956 3463 1253 3523 
Q 1550 3584 1831 3584 
Q 2591 3584 2966 3190 
Q 3341 2797 3341 1997 
z
" transform="scale(0.015625)"/>
      <path id="DejaVuSans-69" d="M 603 3500 
L 1178 3500 
L 1178 0 
L 603 0 
L 603 3500 
z
M 603 4863 
L 1178 4863 
L 1178 4134 
L 603 4134 
L 603 4863 
z
" transform="scale(0.015625)"/>
      <path id="DejaVuSans-6e" d="M 3513 2113 
L 3513 0 
L 2938 0 
L 2938 2094 
Q 2938 2591 2744 2837 
Q 2550 3084 2163 3084 
Q 1697 3084 1428 2787 
Q 1159 2491 1159 1978 
L 1159 0 
L 581 0 
L 581 3500 
L 1159 3500 
L 1159 2956 
Q 1366 3272 1645 3428 
Q 1925 3584 2291 3584 
Q 2894 3584 3203 3211 
Q 3513 2838 3513 2113 
z
" transform="scale(0.015625)"/>
      <path id="DejaVuSans-67" d="M 2906 1791 
Q 2906 2416 2648 2759 
Q 2391 3103 1925 3103 
Q 1463 3103 1205 2759 
Q 947 2416 947 1791 
Q 947 1169 1205 825 
Q 1463 481 1925 481 
Q 2391 481 2648 825 
Q 2906 1169 2906 1791 
z
M 3481 434 
Q 3481 -459 3084 -895 
Q 2688 -1331 1869 -1331 
Q 1566 -1331 1297 -1286 
Q 1028 -1241 775 -1147 
L 775 -588 
Q 1028 -725 1275 -790 
Q 1522 -856 1778 -856 
Q 2344 -856 2625 -561 
Q 2906 -266 2906 331 
L 2906 616 
Q 2728 306 2450 153 
Q 2172 0 1784 0 
Q 1141 0 747 490 
Q 353 981 353 1791 
Q 353 2603 747 3093 
Q 1141 3584 1784 3584 
Q 2172 3584 2450 3431 
Q 2728 3278 2906 2969 
L 2906 3500 
L 3481 3500 
L 3481 434 
z
" transform="scale(0.015625)"/>
      <path id="DejaVuSans-20" transform="scale(0.015625)"/>
      <path id="DejaVuSans-6c" d="M 603 4863 
L 1178 4863 
L 1178 0 
L 603 0 
L 603 4863 
z
" transform="scale(0.015625)"/>
     </defs>
     <use xlink:href="#DejaVuSans-54"/>
     <use xlink:href="#DejaVuSans-72" x="46.333984"/>
     <use xlink:href="#DejaVuSans-61" x="87.447266"/>
     <use xlink:href="#DejaVuSans-69" x="148.726562"/>
     <use xlink:href="#DejaVuSans-6e" x="176.509766"/>
     <use xlink:href="#DejaVuSans-69" x="239.888672"/>
     <use xlink:href="#DejaVuSans-6e" x="267.671875"/>
     <use xlink:href="#DejaVuSans-67" x="331.050781"/>
     <use xlink:href="#DejaVuSans-20" x="394.527344"/>
     <use xlink:href="#DejaVuSans-6c" x="426.314453"/>
     <use xlink:href="#DejaVuSans-6f" x="454.097656"/>
     <use xlink:href="#DejaVuSans-73" x="515.279297"/>
     <use xlink:href="#DejaVuSans-73" x="567.378906"/>
    </g>
   </g>
  </g>
 </g>
 <defs>
  <clipPath id="p3a6145aee7">
   <rect x="90" y="51.84" width="558" height="332.64"/>
  </clipPath>
 </defs>
</svg>
